<svg width="127" height="61" viewBox="0 0 127 61" fill="none" xmlns="http://www.w3.org/2000/svg">
<path d="M64.022 29.5107H50.9199V44.8529H79.0756L67.9252 29.3039C66.6291 29.4453 65.3259 29.5144 64.022 29.5107Z" fill="#E6007E"/>
<path d="M79.0756 12.5948C79.0756 4.57983 73.8668 0 64.0125 0H50.9199V25.1176H64.0125C73.8668 25.1173 79.0756 20.466 79.0756 12.5948Z" fill="#E6007E"/>
<path d="M39.5377 0H0L19.6954 44.8529L39.5377 0Z" fill="#009FE3"/>
<path d="M95.25 27.5098H119.811L107.53 0L95.25 27.5098Z" fill="#FFED00"/>
<path d="M93.4141 31.6961L87.4624 44.853H127L121.048 31.6961H93.4141Z" fill="#FFED00"/>
<path d="M3.59434 53.8235V59.7631H3.13426V58.93C2.99141 59.2068 2.78872 59.4335 2.54707 59.5869C2.30542 59.7403 2.03355 59.8148 1.75945 59.8027C1.28814 59.7864 0.840751 59.5536 0.512251 59.1538C0.183752 58.754 0 58.2186 0 57.6613C0 57.104 0.183752 56.5686 0.512251 56.1688C0.840751 55.769 1.28814 55.5363 1.75945 55.52C2.02676 55.5095 2.29184 55.5807 2.5291 55.7267C2.76636 55.8726 2.9678 56.0883 3.11397 56.3531V53.8235H3.59434ZM3.1204 57.6577C3.13223 57.4454 3.10669 57.2325 3.0454 57.0324C2.98411 56.8323 2.8884 56.6494 2.76431 56.4952C2.64022 56.341 2.49043 56.2189 2.32441 56.1366C2.15839 56.0543 1.97974 56.0135 1.79972 56.0169C1.44243 56.0361 1.10515 56.2174 0.858048 56.523C0.610949 56.8287 0.473056 57.2351 0.473056 57.6579C0.473056 58.0806 0.610949 58.4871 0.858048 58.7928C1.10515 59.0984 1.44243 59.2797 1.79972 59.2989C1.97975 59.3022 2.15841 59.2614 2.32443 59.1791C2.49045 59.0967 2.64023 58.9746 2.76432 58.8204C2.88841 58.6662 2.98412 58.4833 3.0454 58.2832C3.10669 58.0831 3.13222 57.8701 3.1204 57.6577Z" fill="white"/>
<path d="M10.7719 57.8773H7.68858C7.69904 58.0777 7.74493 58.2738 7.82361 58.4544C7.90229 58.6349 8.0122 58.7963 8.14703 58.9293C8.28185 59.0622 8.43892 59.1641 8.60919 59.2291C8.77946 59.294 8.95956 59.3208 9.13913 59.3078C9.35108 59.3151 9.5619 59.2707 9.7568 59.1775C9.9517 59.0843 10.126 58.9447 10.2674 58.7684L10.5478 59.1279C10.3697 59.3498 10.1498 59.5252 9.90394 59.6414C9.65805 59.7576 9.3922 59.8118 9.12535 59.8002C8.87215 59.8172 8.61856 59.7752 8.38074 59.6768C8.14292 59.5783 7.92609 59.4257 7.7441 59.2286C7.5621 59.0315 7.41893 58.7942 7.32371 58.5319C7.22849 58.2696 7.18332 57.9881 7.19107 57.7052C7.17791 57.4339 7.21494 57.1624 7.29987 56.9078C7.38479 56.6531 7.51579 56.4206 7.6847 56.2248C7.85362 56.029 8.05685 55.8741 8.28174 55.7697C8.50662 55.6653 8.74836 55.6137 8.99191 55.618C9.23511 55.6127 9.47664 55.6638 9.7012 55.768C9.92577 55.8723 10.1285 56.0274 10.2965 56.2236C10.4645 56.4199 10.5941 56.6529 10.6772 56.9079C10.7603 57.163 10.795 57.4345 10.7791 57.7052C10.7787 57.7526 10.7719 57.8152 10.7719 57.8773ZM7.68858 57.463H10.3023C10.2812 57.0923 10.1343 56.7446 9.89151 56.4905C9.64875 56.2363 9.32834 56.0949 8.99544 56.0949C8.66254 56.0949 8.34213 56.2363 8.09938 56.4905C7.85662 56.7446 7.70973 57.0923 7.68858 57.463Z" fill="white"/>
<path d="M13.7783 59.2943L14.0454 58.8564C14.5003 59.1606 15.0461 59.3221 15.6048 59.3179C16.4387 59.3179 16.7807 59.0518 16.7807 58.6452C16.7807 57.5736 13.9371 58.4182 13.9371 56.7913C13.9371 56.1185 14.5542 55.6179 15.6717 55.6179C16.2163 55.61 16.7528 55.7426 17.2226 56.0013L16.964 56.447C16.5816 56.2087 16.1306 56.0859 15.6717 56.0952C14.8792 56.0952 14.529 56.3846 14.529 56.7758C14.529 57.8864 17.3727 57.0494 17.3727 58.6294C17.3727 59.3412 16.705 59.8027 15.5631 59.8027C14.925 59.8201 14.2983 59.6416 13.7783 59.2943Z" fill="white"/>
<path d="M20.3685 54.1864C20.3704 54.0884 20.4029 53.9953 20.459 53.9274C20.5151 53.8595 20.5902 53.8222 20.6679 53.8237C20.7061 53.8222 20.7442 53.8302 20.7799 53.8473C20.8156 53.8643 20.8483 53.8901 20.8761 53.9231C20.9039 53.9561 20.9263 53.9957 20.9419 54.0397C20.9575 54.0836 20.9661 54.131 20.9672 54.1791C20.968 54.2792 20.9372 54.3756 20.8815 54.4471C20.8259 54.5186 20.75 54.5593 20.6706 54.5602C20.5911 54.5612 20.5147 54.5224 20.4579 54.4523C20.4012 54.3822 20.3689 54.2865 20.3682 54.1864H20.3685ZM20.4607 55.3906H20.8694V59.2059H20.4607V55.3906Z" fill="white"/>
<path d="M28.1382 55.6494V59.0464C28.1746 59.3097 28.1546 59.5787 28.0798 59.8317C28.005 60.0848 27.8774 60.3148 27.7076 60.5031C27.5377 60.6914 27.3302 60.8327 27.1019 60.9156C26.8735 60.9985 26.6308 61.0207 26.3933 60.9804C25.8045 61.0066 25.227 60.795 24.7682 60.3849L25.0071 59.9879C25.3922 60.3421 25.8799 60.5302 26.3802 60.5176C27.2624 60.5176 27.6669 60.0691 27.6669 59.1134V58.6196C27.516 58.8619 27.3122 59.0578 27.0744 59.189C26.8366 59.3201 26.5726 59.3823 26.3072 59.3696C26.0806 59.3775 25.8549 59.3348 25.6434 59.2441C25.4319 59.1534 25.239 59.0166 25.0762 58.8417C24.9134 58.6668 24.7839 58.4574 24.6955 58.226C24.6071 57.9946 24.5615 57.7458 24.5615 57.4945C24.5615 57.2432 24.6071 56.9944 24.6955 56.763C24.7839 56.5316 24.9134 56.3222 25.0762 56.1473C25.239 55.9724 25.4319 55.8355 25.6434 55.7449C25.8549 55.6542 26.0806 55.6115 26.3072 55.6194C26.5777 55.6058 26.8468 55.6697 27.0884 55.805C27.3301 55.9402 27.5363 56.1423 27.687 56.3916V55.649L28.1382 55.6494ZM27.6805 57.4874C27.6892 57.1954 27.6191 56.9072 27.4791 56.6596C27.3391 56.412 27.1357 56.2164 26.8948 56.0978C26.6539 55.9792 26.3866 55.9429 26.127 55.9937C25.8674 56.0445 25.6274 56.1801 25.4377 56.383C25.2481 56.5859 25.1173 56.8469 25.0623 57.1326C25.0073 57.4183 25.0305 57.7158 25.1289 57.9868C25.2273 58.2578 25.3965 58.4902 25.6147 58.654C25.833 58.8178 26.0904 58.9057 26.354 58.9064C26.5271 58.9187 26.7007 58.8908 26.8636 58.8246C27.0264 58.7583 27.175 58.6551 27.2999 58.5215C27.4247 58.388 27.5231 58.227 27.5886 58.049C27.6541 57.8709 27.6854 57.6797 27.6805 57.4874Z" fill="white"/>
<path d="M35.9326 57.1435V59.2059H35.4068V57.1908C35.4311 57.0423 35.4182 56.8908 35.3691 56.7476C35.3201 56.6044 35.2361 56.4731 35.1235 56.3638C35.0109 56.2545 34.8727 56.1699 34.7192 56.1163C34.5657 56.0628 34.4009 56.0417 34.2372 56.0547C34.0509 56.0424 33.864 56.0675 33.6895 56.1283C33.5151 56.1891 33.3573 56.2841 33.2275 56.4066C33.0976 56.5291 32.9987 56.6761 32.9378 56.8373C32.8768 56.9985 32.8554 57.17 32.8749 57.3396V59.2057H32.3491V55.6492H32.8528V56.3049C33.0105 56.0809 33.231 55.8995 33.4913 55.7794C33.7516 55.6593 34.0423 55.605 34.3333 55.622C34.5537 55.6058 34.7752 55.6346 34.9818 55.7063C35.1885 55.7779 35.3751 55.8906 35.5282 56.0363C35.6813 56.1819 35.7969 56.3568 35.8669 56.5483C35.9368 56.7398 35.9593 56.9431 35.9326 57.1435Z" fill="white"/>
<path d="M47.601 59.8039L46.835 59.0523C46.5973 59.2885 46.3098 59.4742 45.9914 59.5973C45.673 59.7203 45.3308 59.778 44.9874 59.7664C43.9055 59.7664 43.1318 59.2247 43.1318 58.4282C43.1318 57.8044 43.5111 57.3457 44.5215 56.7894C44.3187 56.6408 44.1517 56.4526 44.0317 56.2373C43.9118 56.022 43.8417 55.7848 43.8262 55.5415C43.8262 54.8726 44.371 54.4216 45.2238 54.4216C46.0057 54.4216 46.511 54.8124 46.511 55.4664C46.511 55.9926 46.1792 56.361 45.2792 56.857L46.7952 58.3455C46.9766 58.029 47.102 57.6863 47.1663 57.331L47.6242 57.4661C47.5394 57.8945 47.3736 58.3046 47.1348 58.6765L47.9243 59.4508L47.601 59.8039ZM46.5034 58.7293L44.8372 57.0976C43.9529 57.579 43.6846 57.9095 43.6846 58.3757C43.6846 58.9469 44.2214 59.3228 45.0189 59.3228C45.2967 59.332 45.5733 59.2836 45.8295 59.1811C46.0858 59.0786 46.3156 58.9243 46.5032 58.729L46.5034 58.7293ZM44.3478 55.5343C44.3478 55.8426 44.4662 56.0605 44.9715 56.5488C45.769 56.1128 46.0296 55.8498 46.0296 55.4741C46.0296 55.0833 45.7375 54.8201 45.2242 54.8201C44.6714 54.82 44.3478 55.1131 44.3478 55.5341V55.5343Z" fill="white"/>
<path d="M61.6889 57.1433V59.2059H61.1509V57.1906C61.1509 56.44 60.7268 56.0544 60.0072 56.0544C59.8204 56.0463 59.6339 56.0747 59.4608 56.1378C59.2876 56.2008 59.1321 56.297 59.005 56.4194C58.8779 56.5419 58.7824 56.6877 58.7252 56.8467C58.668 57.0056 58.6505 57.1738 58.6739 57.3394V59.2057H58.1361V57.1906C58.1361 56.44 57.7116 56.0544 56.9846 56.0544C56.7979 56.0468 56.6117 56.0756 56.4389 56.1389C56.266 56.2021 56.1107 56.2983 55.9838 56.4206C55.8568 56.543 55.7613 56.6886 55.7039 56.8472C55.6464 57.0059 55.6285 57.1739 55.6512 57.3394V59.2057H55.1133V55.6488H55.6283V56.298C55.7813 56.0783 55.9979 55.8995 56.2552 55.7804C56.5125 55.6614 56.8011 55.6065 57.0904 55.6216C57.3844 55.6013 57.6783 55.6625 57.9318 55.7968C58.1854 55.9312 58.3862 56.1323 58.5069 56.3724C58.6686 56.1315 58.9006 55.9344 59.1782 55.8021C59.4557 55.6699 59.7684 55.6075 60.0826 55.6216C60.3066 55.6061 60.5316 55.6356 60.7412 55.7079C60.9507 55.7803 61.1395 55.8935 61.2935 56.0395C61.4476 56.1855 61.5631 56.3604 61.6315 56.5514C61.6999 56.7424 61.7195 56.9447 61.6889 57.1433Z" fill="white"/>
<path d="M68.8837 57.2211V59.759H68.3307V59.1209C68.171 59.3495 67.9503 59.5329 67.6914 59.6521C67.4325 59.7712 67.145 59.8217 66.8588 59.7983C65.8909 59.7983 65.2974 59.3157 65.2974 58.6073C65.2974 57.9766 65.7202 57.4473 66.9483 57.4473H68.3062V57.198C68.3062 56.4974 67.8916 56.1159 67.0945 56.1159C66.5752 56.1093 66.0706 56.2804 65.6714 56.5984L65.411 56.1859C65.9067 55.8141 66.5219 55.6187 67.1514 55.633C67.3803 55.6009 67.6139 55.6192 67.8342 55.6865C68.0546 55.7539 68.256 55.8685 68.4231 56.0217C68.5902 56.1748 68.7186 56.3625 68.7984 56.5704C68.8782 56.7782 68.9074 57.0008 68.8837 57.2211ZM68.3062 58.5291V57.8596H66.9644C66.1348 57.8596 65.8669 58.1712 65.8669 58.5913C65.8669 59.0663 66.2651 59.3621 66.9485 59.3621C67.2378 59.3788 67.5252 59.3071 67.7692 59.1574C68.0132 59.0077 68.2013 58.7877 68.3062 58.5291Z" fill="white"/>
<path d="M76.0692 57.1435V59.2059H75.5442V57.1908C75.5684 57.0423 75.5555 56.8908 75.5063 56.7475C75.4572 56.6043 75.3732 56.4731 75.2606 56.3638C75.148 56.2544 75.0097 56.1698 74.8561 56.1163C74.7025 56.0628 74.5377 56.0417 74.3739 56.0547C74.1877 56.0424 74.0008 56.0675 73.8263 56.1284C73.6518 56.1892 73.4941 56.2842 73.3642 56.4067C73.2343 56.5292 73.1354 56.6762 73.0745 56.8374C73.0136 56.9986 72.9921 57.17 73.0116 57.3396V59.2057H72.4858V55.6492H72.9893V56.3049C73.1471 56.0809 73.3676 55.8995 73.628 55.7794C73.8883 55.6593 74.1791 55.605 74.4702 55.622C74.6906 55.6058 74.9121 55.6346 75.1188 55.7062C75.3254 55.7779 75.5121 55.8906 75.6651 56.0363C75.8182 56.1819 75.9338 56.3568 76.0037 56.5483C76.0736 56.7399 76.096 56.9432 76.0692 57.1435Z" fill="white"/>
<path d="M83.2686 55.6176V59.7572H82.7596V59.0016C82.6139 59.2559 82.4055 59.464 82.1565 59.6039C81.9076 59.7438 81.6273 59.8103 81.3453 59.7965C81.1191 59.8194 80.8909 59.7889 80.6774 59.7071C80.4639 59.6254 80.2705 59.4945 80.1112 59.324C79.952 59.1535 79.831 58.9477 79.7572 58.7217C79.6833 58.4957 79.6584 58.2552 79.6842 58.0178V55.6176H80.2155V57.9629C80.1902 58.1362 80.2027 58.3132 80.252 58.4807C80.3012 58.6482 80.3859 58.8018 80.4998 58.9298C80.6137 59.0579 80.7537 59.1571 80.9093 59.2199C81.0649 59.2828 81.232 59.3077 81.3981 59.2928C81.5845 59.3033 81.7708 59.2709 81.9439 59.1977C82.1171 59.1245 82.2729 59.0124 82.4006 58.8692C82.5282 58.726 82.6245 58.5551 82.6827 58.3687C82.741 58.1822 82.7597 57.9846 82.7377 57.7897V55.6176H83.2686Z" fill="white"/>
<path d="M87.9544 54.9733V55.4197H89.0391V55.8514H87.9679V59.2059H87.4925V55.8514H86.8633V55.4197H87.4925V54.9518C87.4808 54.7993 87.5005 54.6459 87.5501 54.5025C87.5998 54.3591 87.6782 54.2292 87.7798 54.122C87.8813 54.0148 88.0036 53.933 88.1379 53.8823C88.2722 53.8317 88.4152 53.8134 88.5568 53.8289C88.8093 53.8201 89.0571 53.9039 89.2595 54.0664L89.0987 54.4479C88.9504 54.3215 88.7656 54.2553 88.5764 54.2607C88.1688 54.2609 87.9544 54.5054 87.9544 54.9733Z" fill="white"/>
<path d="M95.2421 57.2211V59.759H94.6895V59.1209C94.5298 59.3495 94.3089 59.533 94.05 59.6521C93.791 59.7713 93.5035 59.8217 93.2172 59.7983C92.2499 59.7983 91.6558 59.3157 91.6558 58.6073C91.6558 57.9766 92.0786 57.4473 93.307 57.4473H94.6649V57.198C94.6649 56.4974 94.2501 56.1159 93.453 56.1159C92.9337 56.1093 92.4291 56.2805 92.0299 56.5985L91.7695 56.1859C92.2652 55.8141 92.8804 55.6187 93.5099 55.6331C93.7388 55.6009 93.9723 55.6191 94.1927 55.6865C94.4131 55.7538 94.6145 55.8685 94.7816 56.0216C94.9487 56.1748 95.077 56.3625 95.1568 56.5704C95.2366 56.7782 95.2658 57.0008 95.2421 57.2211ZM94.6655 58.5291V57.8596H93.3236C92.4939 57.8596 92.2261 58.1712 92.2261 58.5912C92.2261 59.0662 92.6246 59.3621 93.3077 59.3621C93.5969 59.3786 93.8842 59.3069 94.1281 59.1572C94.372 59.0075 94.56 58.7876 94.6651 58.5291H94.6655Z" fill="white"/>
<path d="M98.2462 57.7068C98.2375 57.4278 98.2846 57.1499 98.3845 56.8906C98.4844 56.6314 98.635 56.3964 98.8268 56.2004C99.0185 56.0044 99.2473 55.8518 99.4988 55.752C99.7502 55.6522 100.019 55.6075 100.288 55.6207C100.593 55.6022 100.897 55.6677 101.169 55.8105C101.442 55.9533 101.673 56.1684 101.839 56.4338L101.44 56.715C101.313 56.5213 101.141 56.364 100.939 56.2575C100.738 56.151 100.514 56.0988 100.288 56.1057C99.8859 56.1178 99.5044 56.2918 99.2242 56.5909C98.9441 56.8899 98.7874 57.2905 98.7874 57.7074C98.7874 58.1244 98.9441 58.5249 99.2242 58.824C99.5044 59.123 99.8859 59.2971 100.288 59.3091C100.513 59.3175 100.737 59.2668 100.938 59.1616C101.14 59.0564 101.313 58.9002 101.44 58.7074L101.839 58.9889C101.672 59.253 101.44 59.467 101.168 59.6095C100.896 59.752 100.592 59.8182 100.288 59.8013C100.018 59.8136 99.7494 59.768 99.4978 59.6674C99.2462 59.5668 99.0174 59.4134 98.8257 59.2167C98.634 59.02 98.4835 58.7844 98.3838 58.5246C98.2841 58.2647 98.2372 57.9863 98.2462 57.7068Z" fill="white"/>
<path d="M107.231 59.4889C107.021 59.6981 106.759 59.8072 106.49 59.7968C106.352 59.816 106.212 59.7964 106.081 59.7393C105.95 59.6823 105.83 59.5893 105.732 59.4672C105.633 59.345 105.558 59.1969 105.511 59.0336C105.464 58.8704 105.448 58.6961 105.462 58.5238V55.8776H104.835V55.3786H105.462V54.4216H105.936V55.3786H107.004V55.8776H105.936V58.4906C105.924 58.5954 105.931 58.7023 105.957 58.8033C105.982 58.9042 106.026 58.9966 106.084 59.0735C106.143 59.1504 106.215 59.2097 106.294 59.2471C106.373 59.2845 106.459 59.2989 106.543 59.2894C106.733 59.2953 106.918 59.2155 107.064 59.0647L107.231 59.4889Z" fill="white"/>
<path d="M114.42 55.6176V59.7572H113.911V59.0016C113.765 59.2559 113.557 59.464 113.308 59.6039C113.059 59.7438 112.779 59.8104 112.497 59.7965C112.271 59.8194 112.042 59.7889 111.829 59.7071C111.615 59.6254 111.422 59.4945 111.263 59.324C111.103 59.1535 110.982 58.9477 110.909 58.7217C110.835 58.4957 110.81 58.2552 110.836 58.0178V55.6176H111.367V57.9629C111.342 58.1361 111.354 58.3131 111.403 58.4806C111.453 58.6481 111.537 58.8016 111.651 58.9297C111.765 59.0577 111.905 59.1569 112.06 59.2198C112.216 59.2827 112.383 59.3077 112.549 59.2928C112.736 59.3033 112.922 59.2709 113.095 59.1977C113.268 59.1245 113.424 59.0124 113.552 58.8692C113.679 58.726 113.776 58.5551 113.834 58.3687C113.892 58.1822 113.911 57.9846 113.889 57.7897V55.6176H114.42Z" fill="white"/>
<path d="M119.811 55.6247V56.0909C119.77 56.0909 119.73 56.0844 119.696 56.0844C119.526 56.0758 119.356 56.1048 119.199 56.1694C119.041 56.2339 118.9 56.3323 118.786 56.4576C118.671 56.5829 118.585 56.7319 118.535 56.894C118.485 57.056 118.472 57.2271 118.496 57.395V59.2059H118.014V55.6519H118.475V56.3474C118.599 56.1068 118.793 55.909 119.031 55.78C119.269 55.651 119.541 55.5969 119.811 55.6247Z" fill="white"/>
<path d="M126.987 57.8793H123.39C123.402 58.0799 123.455 58.2762 123.547 58.4569C123.639 58.6376 123.767 58.7991 123.925 58.9322C124.082 59.0653 124.265 59.1673 124.464 59.2323C124.663 59.2973 124.873 59.324 125.082 59.3109C125.329 59.3183 125.575 59.2738 125.803 59.1806C126.03 59.0873 126.233 58.9476 126.398 58.7711L126.725 59.1309C126.417 59.4403 126.019 59.6557 125.583 59.7502C125.147 59.8447 124.692 59.814 124.274 59.662C123.856 59.51 123.494 59.2435 123.234 58.8958C122.973 58.548 122.826 58.1345 122.81 57.7069C122.794 57.4354 122.838 57.1637 122.937 56.9088C123.036 56.6539 123.188 56.4213 123.386 56.2253C123.583 56.0294 123.82 55.8744 124.082 55.7699C124.344 55.6654 124.626 55.6137 124.911 55.618C125.194 55.6127 125.476 55.6638 125.738 55.7682C126 55.8725 126.237 56.0278 126.433 56.2242C126.629 56.4206 126.78 56.6538 126.877 56.909C126.974 57.1642 127.014 57.436 126.996 57.7069C126.995 57.7546 126.987 57.8172 126.987 57.8793ZM123.39 57.4646H126.439C126.414 57.0936 126.243 56.7455 125.96 56.491C125.677 56.2365 125.303 56.0949 124.914 56.0949C124.526 56.0949 124.152 56.2365 123.869 56.491C123.586 56.7455 123.414 57.0936 123.39 57.4646Z" fill="white"/>
</svg>
