<svg width="21" height="20" viewBox="0 0 21 20" fill="none" xmlns="http://www.w3.org/2000/svg">
<path d="M10.5 0C16.0228 0 20.5 4.47715 20.5 10C20.5 15.5228 16.0228 20 10.5 20C4.97715 20 0.5 15.5228 0.5 10C0.5 4.47715 4.97715 0 10.5 0ZM10.5 2C6.08172 2 2.5 5.58172 2.5 10C2.5 14.4183 6.08172 18 10.5 18C14.9183 18 18.5 14.4183 18.5 10C18.5 5.58172 14.9183 2 10.5 2ZM10.5 8C11.0128 8 11.4355 8.22519 11.4933 8.5153L11.5 8.58333V14.4167C11.5 14.7388 11.0523 15 10.5 15C9.98716 15 9.56449 14.7748 9.50673 14.4847L9.5 14.4167V8.58333C9.5 8.26117 9.94772 8 10.5 8ZM10.5 5C11.0523 5 11.5 5.44772 11.5 6C11.5 6.55228 11.0523 7 10.5 7C9.94772 7 9.5 6.55228 9.5 6C9.5 5.44772 9.94772 5 10.5 5Z" fill="black" fill-opacity="0.38"/>
</svg>
