<svg width="18" height="18" viewBox="0 0 18 18" fill="none" xmlns="http://www.w3.org/2000/svg">
<path fill-rule="evenodd" clip-rule="evenodd" d="M16 6.5V15.5C16 15.775 15.775 16 15.5 16H6.5C6.225 16 6 15.775 6 15.5V6.5C6 6.224 6.224 6 6.5 6H15.5C15.776 6 16 6.224 16 6.5ZM15.5 4C16.879 4 18 5.122 18 6.5V15.5C18 16.879 16.879 18 15.5 18H6.5C5.122 18 4 16.879 4 15.5V6.5C4 5.122 5.122 4 6.5 4H15.5ZM13 0C13.552 0 14 0.448 14 1C14 1.552 13.552 2 13 2H2V13C2 13.552 1.552 14 1 14C0.448 14 0 13.552 0 13V2.5C0 1.119 1.119 0 2.5 0H13Z" fill="white"/>
</svg>
