<svg width="18" height="18" viewBox="0 0 18 18" fill="none" xmlns="http://www.w3.org/2000/svg">
<path d="M1.65453 15.8242H16.3455C17.2578 15.8242 18 15.0819 18 14.1695V3.8299C18 2.9175 17.2578 2.17529 16.3455 2.17529H1.65453C0.742212 2.17529 0 2.91758 0 3.8299V14.1695C0 15.0819 0.742212 15.8242 1.65453 15.8242ZM1.07754 3.8299C1.07754 3.51123 1.33623 3.25284 1.65453 3.25284H16.3455C16.6639 3.25284 16.9225 3.51123 16.9225 3.8299V14.1695C16.9225 14.4882 16.6638 14.7466 16.3455 14.7466H1.65453C1.33615 14.7466 1.07754 14.4882 1.07754 14.1695V3.8299ZM3.21381 13.9846H2.13627V4.06056L8.86545 8.42928C8.94461 8.48065 9.05531 8.48072 9.13469 8.42914L15.8638 4.06056V13.9846H14.7863V6.04482L9.72131 9.33305C9.50637 9.47249 9.25696 9.54612 9 9.54612C8.74304 9.54612 8.49363 9.47249 8.27884 9.33312L3.21381 6.04482V13.9846Z" fill="white"/>
</svg>
