<svg width="40" height="40" viewBox="0 0 40 40" fill="none" xmlns="http://www.w3.org/2000/svg">
<path d="M39.3388 8.52743C39.5634 8.62522 39.7552 8.78755 39.8755 9.00293C39.8813 9.0132 39.8868 9.02351 39.8921 9.03387C39.9038 9.05656 39.9146 9.07965 39.9244 9.10308C39.9787 9.23203 40.0028 9.36445 39.9997 9.49486V16.8421C39.9997 17.4235 39.473 17.8947 38.8233 17.8947C38.1735 17.8947 37.6468 17.4235 37.6468 16.8421V11.1769L32.2907 13.5731C31.7095 13.8331 31.0029 13.6223 30.7123 13.1023C30.4217 12.5824 30.6573 11.9501 31.2384 11.6901L36.1926 9.47368L31.2384 7.25729C30.6573 6.9973 30.4217 6.36502 30.7123 5.84504C31.0029 5.32506 31.7095 5.1143 32.2907 5.37429L39.3388 8.52743ZM39.9997 30.5051C40.0034 30.6597 39.9689 30.8171 39.8921 30.9661C39.8345 31.0782 39.7552 31.1807 39.6576 31.2685C39.5585 31.3566 39.4529 31.4229 39.3388 31.4726L32.2907 34.6257C31.7095 34.8857 31.0029 34.6749 30.7123 34.155C30.4217 33.635 30.6573 33.0027 31.2384 32.7427L36.1926 30.5263L31.2384 28.3099C30.6573 28.0499 30.4217 27.4176 30.7123 26.8977C31.0029 26.3777 31.7095 26.1669 32.2907 26.4269L37.6468 28.8231V23.1579C37.6468 22.5765 38.1735 22.1053 38.8233 22.1053C39.473 22.1053 39.9997 22.5765 39.9997 23.1579V30.5051ZM3.80735 30.5263L8.76157 32.7427C9.34272 33.0027 9.57827 33.635 9.2877 34.155C8.99713 34.6749 8.29046 34.8857 7.70932 34.6257L0.661216 31.4726C0.436568 31.3748 0.244818 31.2124 0.124459 30.9971C0.118721 30.9868 0.113188 30.9765 0.107859 30.9661C0.0961903 30.9434 0.0854129 30.9204 0.0755549 30.8969C0.0212781 30.768 -0.00279828 30.6355 0.000257708 30.5051V23.1579C0.000257708 22.5765 0.526975 22.1053 1.17671 22.1053C1.82645 22.1053 2.35317 22.5765 2.35317 23.1579V28.8231L7.70932 26.4269C8.29046 26.1669 8.99713 26.3777 9.2877 26.8977C9.57827 27.4176 9.34272 28.0499 8.76157 28.3099L3.80735 30.5263ZM2.35317 11.1769V16.8421C2.35317 17.4235 1.82645 17.8947 1.17671 17.8947C0.526975 17.8947 0.000257708 17.4235 0.000257708 16.8421V9.49486C-0.00336387 9.34032 0.0311194 9.18294 0.107859 9.03387C0.165481 8.9218 0.244829 8.81933 0.342436 8.73147C0.441493 8.64342 0.547111 8.5771 0.661216 8.52743L7.70932 5.37429C8.29046 5.1143 8.99713 5.32506 9.2877 5.84504C9.57827 6.36502 9.34272 6.9973 8.76157 7.25729L3.80735 9.47368L8.76157 11.6901C9.34272 11.9501 9.57827 12.5824 9.2877 13.1023C8.99713 13.6223 8.29046 13.8331 7.70932 13.5731L2.35317 11.1769ZM19.4527 0.1206C19.6162 0.0435863 19.8024 0 20 0C20.1976 0 20.3838 0.0435863 20.5473 0.1206L27.5849 3.26902C28.166 3.52901 28.4016 4.1613 28.111 4.68128C27.8204 5.20125 27.1137 5.41202 26.5326 5.15203L21.1765 2.75583V8.42105C21.1765 9.00241 20.6497 9.47368 20 9.47368C19.3503 9.47368 18.8235 9.00241 18.8235 8.42105V2.75583L13.4674 5.15203C12.8863 5.41202 12.1796 5.20125 11.889 4.68128C11.5984 4.1613 11.834 3.52901 12.4151 3.26902L19.4527 0.1206ZM20.5473 39.8794C20.3838 39.9564 20.1976 40 20 40C19.8024 40 19.6162 39.9564 19.4527 39.8794L12.4151 36.731C11.834 36.471 11.5984 35.8387 11.889 35.3187C12.1796 34.7987 12.8863 34.588 13.4674 34.848L18.8235 37.2442V31.5789C18.8235 30.9976 19.3503 30.5263 20 30.5263C20.6497 30.5263 21.1765 30.9976 21.1765 31.5789V37.2442L26.5326 34.848C27.1137 34.588 27.8204 34.7987 28.111 35.3187C28.4016 35.8387 28.166 36.471 27.5849 36.731L20.5473 39.8794ZM21.1765 18.5453V24.2105C21.1765 24.7919 20.6497 25.2632 20 25.2632C19.3503 25.2632 18.8235 24.7919 18.8235 24.2105V18.5453L12.4151 15.6783C11.834 15.4184 11.5984 14.7861 11.889 14.2661C12.1796 13.7461 12.8863 13.5354 13.4674 13.7953L20 16.7179L26.5326 13.7953C27.1137 13.5354 27.8204 13.7461 28.111 14.2661C28.4016 14.7861 28.166 15.4184 27.5849 15.6783L21.1765 18.5453Z" fill="black"/>
</svg>
