<svg width="22" height="22" viewBox="0 0 22 22" fill="none" xmlns="http://www.w3.org/2000/svg">
<path d="M21.4999 0.516649C20.8499 -0.133351 19.7999 -0.133351 19.15 0.516649L11 8.64998L2.84995 0.499982C2.19995 -0.150018 1.14995 -0.150018 0.499951 0.499982C-0.150049 1.14998 -0.150049 2.19998 0.499951 2.84998L8.64995 11L0.499951 19.15C-0.150049 19.8 -0.150049 20.85 0.499951 21.5C1.14995 22.15 2.19995 22.15 2.84995 21.5L11 13.35L19.15 21.5C19.7999 22.15 20.8499 22.15 21.4999 21.5C22.1499 20.85 22.1499 19.8 21.4999 19.15L13.3499 11L21.4999 2.84998C22.1333 2.21665 22.1333 1.14998 21.4999 0.516649Z" fill="black" fill-opacity="0.6"/>
</svg>
