<svg width="960" height="240" viewBox="0 0 960 240" fill="none" xmlns="http://www.w3.org/2000/svg">
<path fill-rule="evenodd" clip-rule="evenodd" d="M80 67C83.866 67 87 63.866 87 60C87 56.134 83.866 53 80 53C76.134 53 73 56.134 73 60C73 63.866 76.134 67 80 67ZM80 68C84.4183 68 88 64.4183 88 60C88 55.5817 84.4183 52 80 52C75.5817 52 72 55.5817 72 60C72 64.4183 75.5817 68 80 68Z" fill="#333333"/>
<path d="M231.838 192H248.162C249.175 192 250 191.184 250 190.182V178.818C250 177.816 249.175 177 248.162 177H231.838C230.825 177 230 177.816 230 178.818V190.182C230 191.184 230.825 192 231.838 192ZM231.197 178.818C231.197 178.468 231.485 178.184 231.838 178.184H248.162C248.515 178.184 248.803 178.468 248.803 178.818V190.182C248.803 190.532 248.515 190.816 248.162 190.816H231.838C231.485 190.816 231.197 190.532 231.197 190.182V178.818ZM233.571 189.978H232.374V179.072L239.851 183.873C239.938 183.93 240.061 183.93 240.15 183.873L247.626 179.072V189.978H246.429V181.253L240.801 184.866C240.563 185.02 240.286 185.1 240 185.1C239.714 185.1 239.437 185.02 239.199 184.866L233.571 181.253V189.978Z" fill="#333333"/>
<path fill-rule="evenodd" clip-rule="evenodd" d="M400 174C394.477 174 390 178.477 390 184C390 189.523 394.477 194 400 194C405.523 194 410 189.523 410 184C410 178.477 405.523 174 400 174ZM400 175.667C404.595 175.667 408.333 179.405 408.333 184C408.333 188.595 404.595 192.333 400 192.333C395.405 192.333 391.667 188.595 391.667 184C391.667 179.405 395.405 175.667 400 175.667ZM396.667 182.333H398.333V180.923C398.333 179.66 398.998 179 400.497 179H402.5V181.083H401.298C400.913 181.083 400.833 181.241 400.833 181.639V182.333H402.5L402.35 184H400.833V189H398.333V184H396.667V182.333Z" fill="#333333"/>
<path fill-rule="evenodd" clip-rule="evenodd" d="M560 174C554.477 174 550 178.477 550 184C550 189.523 554.477 194 560 194C565.523 194 570 189.523 570 184C570 178.477 565.523 174 560 174ZM560 175.667C564.595 175.667 568.333 179.405 568.333 184C568.333 188.595 564.595 192.333 560 192.333C555.405 192.333 551.667 188.595 551.667 184C551.667 179.405 555.405 175.667 560 175.667ZM562.021 179.931C561.493 179.907 561.335 179.902 560 179.902C558.665 179.902 558.507 179.906 557.98 179.93C556.623 179.992 555.992 180.634 555.93 181.98C555.907 182.507 555.901 182.665 555.901 184C555.901 185.335 555.907 185.493 555.93 186.02C555.993 187.363 556.622 188.008 557.98 188.07C558.507 188.094 558.665 188.099 560 188.099C561.336 188.099 561.493 188.093 562.021 188.07C563.378 188.008 564.008 187.364 564.071 186.02C564.094 185.493 564.099 185.335 564.099 184C564.099 182.665 564.094 182.508 564.071 181.98C564.008 180.635 563.377 179.993 562.021 179.931ZM560 179C558.642 179 558.472 179.006 557.938 179.031C556.122 179.114 555.113 180.122 555.03 181.938C555.006 182.472 555 182.642 555 184C555 185.358 555.006 185.528 555.03 186.062C555.113 187.878 556.122 188.887 557.938 188.97C558.472 188.994 558.642 189 560 189C561.358 189 561.528 188.994 562.062 188.97C563.876 188.887 564.888 187.879 564.97 186.062C564.994 185.528 565 185.358 565 184C565 182.642 564.994 182.472 564.97 181.938C564.888 180.124 563.879 179.113 562.062 179.031C561.528 179.006 561.358 179 560 179ZM557.432 184C557.432 182.582 558.582 181.433 560 181.433C561.417 181.433 562.567 182.583 562.567 184C562.567 185.418 561.417 186.568 560 186.568C558.582 186.568 557.432 185.418 557.432 184ZM560 185.667C559.079 185.667 558.333 184.921 558.333 184C558.333 183.08 559.079 182.333 560 182.333C560.92 182.333 561.667 183.079 561.667 184C561.667 184.921 560.92 185.667 560 185.667ZM562.068 181.332C562.068 181 562.338 180.732 562.668 180.732C563.001 180.732 563.269 181 563.269 181.332C563.269 181.663 563 181.932 562.668 181.932C562.337 181.932 562.068 181.663 562.068 181.332Z" fill="#333333"/>
<path d="M727.293 189.037C727.683 189.427 727.683 190.061 727.293 190.451L726.451 191.293C726.061 191.683 725.427 191.683 725.037 191.293L720 186.256L714.963 191.293C714.573 191.683 713.939 191.683 713.549 191.293L712.707 190.451C712.317 190.061 712.317 189.427 712.707 189.037L717.744 184L712.707 178.963C712.317 178.573 712.317 177.939 712.707 177.549L713.549 176.707C713.939 176.317 714.573 176.317 714.963 176.707L720 181.744L725.037 176.707C725.427 176.317 726.061 176.317 726.451 176.707L727.293 177.549C727.683 177.939 727.683 178.573 727.293 178.963L722.256 184L727.293 189.037Z" fill="#333333"/>
<path d="M873.065 178.523L880.009 185.468L886.953 178.523C887.651 177.826 888.779 177.826 889.477 178.523C890.174 179.221 890.174 180.349 889.477 181.047L881.262 189.262C880.564 189.96 879.436 189.96 878.738 189.262L870.523 181.047C869.826 180.349 869.826 179.221 870.523 178.523C871.221 177.843 872.367 177.826 873.065 178.523Z" fill="#333333"/>
<path d="M244.294 62.5786H243.391L243.07 62.2699C244.191 60.9663 244.866 59.2739 244.866 57.4328C244.866 53.3276 241.538 50 237.433 50C233.328 50 230 53.3276 230 57.4328C230 61.538 233.328 64.8656 237.433 64.8656C239.274 64.8656 240.966 64.191 242.27 63.0703L242.579 63.3905V64.2939L248.296 70L250 68.2962L244.294 62.5786ZM237.433 62.5786C234.585 62.5786 232.287 60.2802 232.287 57.4328C232.287 54.5855 234.585 52.287 237.433 52.287C240.28 52.287 242.579 54.5855 242.579 57.4328C242.579 60.2802 240.28 62.5786 237.433 62.5786Z" fill="#333333"/>
<path d="M77.8478 186.985L77.517 191.638C77.9903 191.638 78.1953 191.435 78.4412 191.191L80.6604 189.07L85.2588 192.437C86.1022 192.907 86.6964 192.66 86.9239 191.662L89.9423 177.518L89.9431 177.517C90.2106 176.27 89.4923 175.783 88.6706 176.089L70.9285 182.881C69.7176 183.351 69.736 184.026 70.7227 184.332L75.2586 185.743L85.7947 179.15C86.2905 178.822 86.7414 179.004 86.3705 179.332L77.8478 186.985Z" fill="#333333"/>
<path d="M400 50C405.523 50 410 54.4772 410 60C410 65.5228 405.523 70 400 70C394.477 70 390 65.5228 390 60C390 54.4772 394.477 50 400 50ZM400 52C395.582 52 392 55.5817 392 60C392 64.4183 395.582 68 400 68C404.418 68 408 64.4183 408 60C408 55.5817 404.418 52 400 52ZM400 58C400.513 58 400.936 58.2252 400.993 58.5153L401 58.5833V64.4167C401 64.7388 400.552 65 400 65C399.487 65 399.064 64.7748 399.007 64.4847L399 64.4167V58.5833C399 58.2612 399.448 58 400 58ZM400 55C400.552 55 401 55.4477 401 56C401 56.5523 400.552 57 400 57C399.448 57 399 56.5523 399 56C399 55.4477 399.448 55 400 55Z" fill="#333333"/>
<path fill-rule="evenodd" clip-rule="evenodd" d="M564 54.1667V64.1667C564 66.4642 562.131 68.3333 559.833 68.3333C557.536 68.3333 555.667 66.4642 555.667 64.1667V54.1667C555.667 52.7883 556.788 51.6667 558.167 51.6667C559.545 51.6667 560.667 52.7883 560.667 54.1667V61.6667C560.667 62.1258 560.293 62.5 559.833 62.5C559.374 62.5 559 62.1258 559 61.6667V55H557.333V61.6667C557.333 63.0475 558.453 64.1667 559.833 64.1667C561.214 64.1667 562.333 63.0475 562.333 61.6667V54.1667C562.333 51.8658 560.468 50 558.167 50C555.866 50 554 51.8658 554 54.1667V64.1667C554 67.3883 556.612 70 559.833 70C563.055 70 565.667 67.3883 565.667 64.1667V54.1667H564Z" fill="#333333"/>
<path fill-rule="evenodd" clip-rule="evenodd" d="M727.778 57.2222V67.2222C727.778 67.5278 727.528 67.7778 727.222 67.7778H717.222C716.917 67.7778 716.667 67.5278 716.667 67.2222V57.2222C716.667 56.9156 716.916 56.6667 717.222 56.6667H727.222C727.529 56.6667 727.778 56.9156 727.778 57.2222ZM727.222 54.4444C728.754 54.4444 730 55.6911 730 57.2222V67.2222C730 68.7544 728.754 70 727.222 70H717.222C715.691 70 714.444 68.7544 714.444 67.2222V57.2222C714.444 55.6911 715.691 54.4444 717.222 54.4444H727.222ZM724.444 50C725.058 50 725.556 50.4978 725.556 51.1111C725.556 51.7244 725.058 52.2222 724.444 52.2222H712.222V64.4444C712.222 65.0578 711.724 65.5556 711.111 65.5556C710.498 65.5556 710 65.0578 710 64.4444V52.7778C710 51.2433 711.243 50 712.778 50H724.444Z" fill="#333333"/>
<path fill-rule="evenodd" clip-rule="evenodd" d="M889.796 62.1572C890.447 56.8882 889.483 53.5618 887.745 52.0572L887.746 52.0564C884.94 49.487 875.466 49.1067 872.109 52.1718C870.602 53.6711 870.071 55.8715 870.013 58.5956C869.955 61.3206 869.886 66.4252 874.832 67.81H874.837L874.832 69.9247C874.832 69.9247 874.798 70.7815 875.367 70.9537C875.98 71.1447 876.277 70.8031 878.001 68.8207L878.337 68.4333C881.723 68.7157 884.323 68.0687 884.618 67.9743C884.679 67.9547 884.766 67.9328 884.873 67.9057C885.967 67.6293 889.226 66.8059 889.796 62.1572ZM878.671 66.9454C878.671 66.9454 876.528 69.5147 875.862 70.1818C875.644 70.3986 875.405 70.3785 875.408 69.9483C875.408 69.666 875.425 66.4374 875.425 66.4374C871.375 65.3214 871.467 61.23 871.519 58.9027C871.52 58.8199 871.522 58.7393 871.524 58.6612C871.569 56.3864 872.002 54.5234 873.278 53.2689C876.223 50.6139 884.529 51.2075 886.646 53.1203C889.001 55.128 888.449 60.471 888.335 61.5744C888.324 61.6833 888.317 61.7509 888.318 61.7699C887.839 65.6065 885.25 66.2076 884.318 66.424L884.318 66.424C884.215 66.4479 884.132 66.4671 884.075 66.4855C883.828 66.5642 881.542 67.1298 878.671 66.9454ZM879.857 53.7684C879.507 53.7684 879.507 54.2929 879.857 54.2973C882.572 54.3174 884.808 56.1376 884.833 59.4762C884.833 59.8286 885.369 59.8242 885.365 59.4719H885.364C885.335 55.8744 882.893 53.7885 879.857 53.7684ZM883.96 58.9347C883.956 59.287 883.42 59.2704 883.429 58.9224C883.47 57.1853 882.379 55.825 880.306 55.6738C879.957 55.6493 879.993 55.1204 880.343 55.1449C882.733 55.3171 884.005 56.951 883.96 58.9347ZM882.856 61.1789C882.407 60.9288 881.95 61.0845 881.761 61.3301L881.365 61.8223C881.165 62.0723 880.789 62.0391 880.789 62.0391C878.049 61.3424 877.316 58.585 877.316 58.585C877.316 58.585 877.283 58.2117 877.534 58.0115L878.028 57.6181C878.275 57.4293 878.432 56.9747 878.18 56.528C877.673 55.6466 877.291 55.2007 877.035 54.902C876.952 54.8045 876.882 54.7228 876.825 54.6466C876.584 54.3555 876.22 54.2899 875.842 54.4867H875.834C875.047 54.929 874.186 55.7569 874.462 56.6093C874.543 56.7651 874.637 56.9801 874.75 57.2402C875.288 58.4805 876.273 60.7482 878.548 62.5374C879.842 63.5611 881.889 64.6102 882.758 64.8524L882.766 64.8646C883.623 65.1391 884.455 64.2789 884.9 63.4999V63.4938C885.097 63.117 885.032 62.7603 884.744 62.5269C884.233 62.0479 883.462 61.5189 882.856 61.1789ZM882.06 58.4856C882.015 57.5842 881.591 57.1454 880.717 57.0964C880.364 57.0763 880.397 56.5474 880.747 56.5675C881.896 56.6287 882.534 57.2844 882.592 58.4611C882.608 58.8134 882.077 58.8379 882.06 58.4856Z" fill="#333333"/>
</svg>
