<svg width="24" height="24" viewBox="0 0 24 24" fill="none" xmlns="http://www.w3.org/2000/svg">
<path d="M20.947 9.90588L19.6351 5.67405C19.5608 5.40456 19.4332 5.15269 19.26 4.93333C19.0867 4.71398 18.8712 4.53158 18.6262 4.39692L18.6215 4.3922L14.6327 2.34566C14.4773 2.26286 14.3135 2.19702 14.144 2.14927C13.9938 2.1061 13.84 2.07666 13.6845 2.06131C13.607 2.05315 13.5291 2.04911 13.4511 2.0492H10.5559C10.4795 2.04921 10.4031 2.05322 10.3271 2.0612C9.99519 2.09256 9.67261 2.18863 9.37759 2.34397L5.16946 4.40768C5.16057 4.41086 5.15213 4.41516 5.14433 4.42047C4.68016 4.66797 4.32889 5.08442 4.16318 5.58367C4.16047 5.59027 4.15824 5.59706 4.1565 5.60398L4.15465 5.60766L3.04695 9.92642C3.02255 10.023 3.03266 10.1251 3.07553 10.215C3.1184 10.305 3.19134 10.3771 3.28174 10.419L5.9106 11.6122C6.00943 11.6577 6.12197 11.6635 6.22495 11.6284C6.32794 11.5933 6.41349 11.5199 6.46391 11.4235L6.64775 11.0771V21.5269C6.64789 21.6393 6.69258 21.747 6.77204 21.8264C6.85149 21.9059 6.95922 21.9506 7.07158 21.9507H16.9276C17.04 21.9506 17.1477 21.9059 17.2272 21.8265C17.3067 21.747 17.3514 21.6393 17.3515 21.5269V11.4185C17.4013 11.5137 17.4849 11.5868 17.5858 11.6236C17.6868 11.6604 17.7978 11.6581 17.8972 11.6173L20.7096 10.4229C20.8053 10.3805 20.8823 10.3045 20.926 10.2093C20.9697 10.1141 20.9772 10.0062 20.947 9.90588ZM13.8769 2.95395C13.8864 2.9565 13.896 2.95927 13.9053 2.96236C13.969 2.98102 14.0317 3.00294 14.0931 3.02804L13.662 5.40598L12.8845 4.93884L13.8769 2.95395ZM12.956 2.90078L12.067 4.6788H11.9361L11.0471 2.90078H12.956ZM12.2303 5.54314V6.65001H11.7651V5.54314L11.7871 5.53035H12.2084L12.2303 5.54314ZM10.1191 2.95525L11.111 4.93897L10.3372 5.40577L9.90573 3.02944C9.97479 2.99911 10.0461 2.97431 10.1191 2.95525V2.95525ZM17.9522 10.6704L17.3961 9.38681L17.8175 8.54407C17.8678 8.44316 17.8759 8.32644 17.8402 8.21951C17.8045 8.11258 17.7279 8.02418 17.6271 7.97371C17.5263 7.92323 17.4096 7.9148 17.3026 7.95027C17.1956 7.98574 17.107 8.0622 17.0563 8.16289L16.5448 9.18285C16.5155 9.2417 16.5001 9.30654 16.5 9.3723V21.103H7.49543V9.37232C7.49531 9.3065 7.47994 9.24162 7.45053 9.18274L6.93911 8.16291C6.88845 8.06216 6.79988 7.98563 6.69285 7.95013C6.58582 7.91462 6.46908 7.92304 6.36825 7.97353C6.26742 8.02402 6.19074 8.11245 6.15506 8.21943C6.11937 8.3264 6.12759 8.44316 6.17791 8.54407L6.58942 9.36704L5.89329 10.6714L3.95897 9.7915L4.97348 5.84667C5.07282 5.55915 5.27611 5.31919 5.5434 5.17397L9.11315 3.42075L9.6137 6.16638C9.62327 6.22141 9.64375 6.27397 9.67394 6.32095C9.70414 6.36794 9.74343 6.40841 9.78951 6.43998C9.83551 6.47213 9.88742 6.49489 9.94224 6.50694C9.99706 6.519 10.0537 6.52011 10.109 6.51023C10.1602 6.50118 10.2092 6.48235 10.2533 6.45476L10.9174 6.05192V7.07384C10.9175 7.18622 10.9622 7.29396 11.0417 7.37342C11.1212 7.45288 11.2289 7.49758 11.3413 7.4977H12.6541C12.7665 7.49758 12.8742 7.45288 12.9537 7.37342C13.0332 7.29396 13.0779 7.18622 13.078 7.07384V6.05084L13.7479 6.45213C13.796 6.48089 13.8492 6.4999 13.9047 6.50805C13.9601 6.5162 14.0165 6.51334 14.0708 6.49964C14.1251 6.48593 14.1762 6.46165 14.2211 6.42818C14.266 6.39471 14.3039 6.35271 14.3325 6.30458C14.3573 6.26047 14.3752 6.2128 14.3855 6.16326L14.8819 3.43091L18.2099 5.14135C18.3557 5.22084 18.484 5.32867 18.5875 5.45851C18.6909 5.58835 18.7673 5.73756 18.8122 5.89738C18.8136 5.90445 18.8158 5.91135 18.8186 5.91798L20.0205 9.79113L17.9522 10.6704Z" fill="url(#paint0_linear)"/>
<path d="M14.3005 8.85272C14.2722 8.85274 14.2445 8.86116 14.2209 8.87691C14.1973 8.89267 14.179 8.91506 14.1681 8.94125C14.1573 8.96745 14.1545 8.99627 14.16 9.02407C14.1655 9.05187 14.1792 9.07741 14.1992 9.09745C14.2193 9.1175 14.2448 9.13115 14.2726 9.13668C14.3004 9.14221 14.3292 9.13938 14.3554 9.12854C14.3816 9.1177 14.404 9.09933 14.4198 9.07577C14.4355 9.0522 14.4439 9.0245 14.4439 8.99615C14.4439 8.95812 14.4288 8.92167 14.4019 8.89478C14.375 8.86789 14.3385 8.85276 14.3005 8.85272Z" fill="url(#paint1_linear)"/>
<path d="M14.4636 8.26514C14.2171 8.26513 13.9782 8.35061 13.7876 8.50701C13.597 8.66341 13.4665 8.88105 13.4184 9.12285C13.3703 9.36466 13.4076 9.61566 13.5238 9.83309C13.64 10.0505 13.828 10.2209 14.0558 10.3153C14.2835 10.4096 14.537 10.4221 14.7729 10.3505C15.0088 10.2789 15.2126 10.1278 15.3496 9.9228C15.4866 9.71781 15.5482 9.47167 15.5241 9.22631C15.4999 8.98096 15.3914 8.75158 15.2171 8.57725C15.1184 8.47799 15.0009 8.39929 14.8716 8.34571C14.7423 8.29214 14.6036 8.26475 14.4636 8.26514ZM14.4636 10.2017C14.3226 10.2017 14.1837 10.1674 14.059 10.1018C13.9342 10.0361 13.8273 9.94112 13.7474 9.82494L14.0186 9.5099C14.0259 9.50192 14.036 9.497 14.0468 9.49614C14.0576 9.49528 14.0683 9.49853 14.0768 9.50524L14.324 9.71406C14.3354 9.72369 14.3486 9.73088 14.3629 9.73519C14.3772 9.73951 14.3922 9.74084 14.407 9.73913C14.4218 9.73741 14.4362 9.73267 14.4491 9.72521C14.462 9.71775 14.4732 9.70771 14.4821 9.69573L14.7929 9.27707C14.7964 9.27229 14.8009 9.26833 14.8062 9.26545C14.8114 9.26258 14.8171 9.26086 14.8231 9.26042C14.829 9.26 14.835 9.26086 14.8406 9.26295C14.8462 9.26504 14.8513 9.2683 14.8556 9.27252L15.2613 9.68007C15.1936 9.83521 15.082 9.96719 14.9403 10.0598C14.7986 10.1525 14.6329 10.2018 14.4636 10.2017ZM15.2801 9.67374L15.2797 9.67357L15.2811 9.67219L15.2801 9.67374ZM15.3225 9.47415L14.8902 9.03989C14.8791 9.02876 14.8657 9.02015 14.851 9.01465C14.8363 9.00916 14.8206 9.0069 14.8049 9.00803C14.7892 9.00917 14.774 9.01368 14.7602 9.02124C14.7464 9.0288 14.7345 9.03925 14.7251 9.05186L14.4074 9.4799C14.404 9.48445 14.3998 9.48826 14.3949 9.49109C14.3899 9.49392 14.3845 9.49572 14.3789 9.49638C14.3732 9.49703 14.3675 9.49653 14.3621 9.49489C14.3567 9.49326 14.3517 9.49053 14.3473 9.48688L14.107 9.28386C14.085 9.26536 14.0566 9.25627 14.0279 9.25854C13.9993 9.26082 13.9726 9.27427 13.9538 9.29601L13.6517 9.64581C13.5905 9.48844 13.5765 9.31662 13.6115 9.15142C13.6465 8.98623 13.729 8.83484 13.8488 8.71583C14.0124 8.55277 14.2338 8.46079 14.4648 8.45984C14.4797 8.45984 14.4947 8.46023 14.5097 8.46102C14.7324 8.47269 14.9422 8.56942 15.0957 8.73126C15.2492 8.8931 15.3347 9.10768 15.3345 9.33073C15.3345 9.37879 15.3305 9.42676 15.3225 9.47415H15.3225Z" fill="url(#paint2_linear)"/>
<defs>
<linearGradient id="paint0_linear" x1="4.51996" y1="21.5316" x2="17.7892" y2="4.51238" gradientUnits="userSpaceOnUse">
<stop stop-color="#009FE3"/>
<stop offset="0.512" stop-color="#E6007E"/>
<stop offset="1" stop-color="#FFED00"/>
</linearGradient>
<linearGradient id="paint1_linear" x1="32.6862" y1="152.238" x2="130.081" y2="27.3174" gradientUnits="userSpaceOnUse">
<stop stop-color="#009FE3"/>
<stop offset="0.512" stop-color="#E6007E"/>
<stop offset="1" stop-color="#FFED00"/>
</linearGradient>
<linearGradient id="paint2_linear" x1="165.516" y1="1085.32" x2="889.487" y2="156.746" gradientUnits="userSpaceOnUse">
<stop stop-color="#009FE3"/>
<stop offset="0.512" stop-color="#E6007E"/>
<stop offset="1" stop-color="#FFED00"/>
</linearGradient>
</defs>
</svg>
