<svg width="24" height="24" viewBox="0 0 24 24" fill="none" xmlns="http://www.w3.org/2000/svg">
<path fill-rule="evenodd" clip-rule="evenodd" d="M15.8262 2.76173C17.0393 3.26448 18.1416 4.00128 19.0699 4.93006C19.9987 5.85842 20.7355 6.96066 21.2383 8.17381C21.741 9.38696 21.9999 10.6873 22 12.0005C22.0001 13.3137 21.7416 14.614 21.2391 15.8273C20.7367 17.0406 20.0001 18.143 19.0715 19.0715C18.143 20.0001 17.0406 20.7367 15.8273 21.2391C14.614 21.7416 13.3137 22.0001 12.0005 22C10.6873 21.9999 9.38696 21.741 8.17381 21.2383C6.96066 20.7355 5.85842 19.9987 4.93006 19.0699C4.00128 18.1416 3.26448 17.0393 2.76173 15.8262C2.25899 14.613 2.00015 13.3127 2 11.9995C1.99985 10.6863 2.2584 9.38597 2.76087 8.1727C3.26334 6.95944 3.99989 5.85704 4.92846 4.92846C5.85704 3.99989 6.95944 3.26334 8.1727 2.76087C9.38597 2.2584 10.6863 1.99985 11.9995 2C13.3127 2.00015 14.613 2.25899 15.8262 2.76173ZM12 20.7684C15.632 20.7684 18.7548 18.5484 20.0841 15.3943C20.0952 15.3668 20.0973 15.3364 20.0902 15.3075C20.0831 15.2787 20.0671 15.2528 20.0444 15.2335C20.0359 15.2259 20.0275 15.218 20.0193 15.2098L16.031 11.2041C15.9569 11.1296 15.8676 11.0721 15.7692 11.0353C15.6708 10.9985 15.5657 10.9834 15.4609 10.991C15.3561 10.9986 15.2542 11.0287 15.1622 11.0793C15.0701 11.1299 14.99 11.1997 14.9274 11.284L11.9161 15.3413C11.8566 15.4214 11.7814 15.4885 11.695 15.5384C11.6087 15.5883 11.513 15.6199 11.4139 15.6314C11.3148 15.6429 11.2145 15.634 11.119 15.6052C11.0235 15.5764 10.9349 15.5283 10.8587 15.464L8.46289 13.4404C8.31588 13.3162 8.12578 13.2551 7.93394 13.2703C7.74211 13.2856 7.56406 13.376 7.43851 13.5218L4.71568 16.6847C4.6951 16.7086 4.68287 16.7384 4.68086 16.7698C4.67885 16.8013 4.68717 16.8325 4.70455 16.8587C6.2783 19.214 8.96088 20.7684 12 20.7684ZM15.9012 9.41304L20.3389 13.8702C20.3572 13.8886 20.3802 13.9018 20.4053 13.9082C20.4305 13.9147 20.4569 13.9143 20.4819 13.907C20.5068 13.8996 20.5293 13.8857 20.547 13.8667C20.5647 13.8477 20.5769 13.8242 20.5823 13.7988C20.7062 13.2072 20.7686 12.6044 20.7684 12C20.7684 7.32064 17.084 3.48561 12.4638 3.24369C7.28415 2.97248 2.97337 7.28164 3.24359 12.4613C3.29707 13.4964 3.53495 14.5136 3.94604 15.4651C3.95578 15.4875 3.97107 15.5071 3.99045 15.522C4.00984 15.5369 4.03269 15.5467 4.05687 15.5504C4.08105 15.554 4.10577 15.5515 4.1287 15.543C4.15163 15.5345 4.17203 15.5203 4.18798 15.5018L7.30781 11.8777C7.43336 11.7318 7.61141 11.6415 7.80324 11.6262C7.99508 11.611 8.18518 11.6721 8.33219 11.7963L10.6615 13.7637C10.7377 13.8281 10.8263 13.8761 10.9218 13.9049C11.0173 13.9337 11.1176 13.9427 11.2167 13.9312C11.3158 13.9197 11.4115 13.888 11.4978 13.8381C11.5842 13.7882 11.6594 13.7212 11.7189 13.6411L14.7976 9.49303C14.8602 9.40869 14.9403 9.33884 15.0323 9.28827C15.1244 9.23769 15.2263 9.20758 15.3311 9.19999C15.4358 9.19239 15.541 9.2075 15.6394 9.24426C15.7378 9.28103 15.8271 9.3386 15.9012 9.41304ZM9.66621 7.25309C9.91277 7.08821 10.2027 7.00014 10.4993 7C10.8973 7 11.279 7.15811 11.5605 7.43955C11.8419 7.72098 12 8.10269 12 8.5007C11.9999 8.79731 11.9118 9.08723 11.7469 9.33379C11.582 9.58036 11.3478 9.77251 11.0737 9.88595C10.7996 9.9994 10.4981 10.029 10.2072 9.97114C9.91629 9.91324 9.64908 9.7704 9.43934 9.56066C9.2296 9.35092 9.08676 9.08371 9.02886 8.79281C8.97096 8.5019 9.0006 8.20036 9.11405 7.9263C9.22749 7.65224 9.41964 7.41796 9.66621 7.25309Z" fill="url(#paint0_linear)"/>
<defs>
<linearGradient id="paint0_linear" x1="3.5" y1="20" x2="12.6652" y2="1.80223" gradientUnits="userSpaceOnUse">
<stop stop-color="#009FE3"/>
<stop offset="0.512001" stop-color="#E6007E"/>
<stop offset="1" stop-color="#FFED00"/>
</linearGradient>
</defs>
</svg>
