<svg width="24" height="24" viewBox="0 0 24 24" fill="none" xmlns="http://www.w3.org/2000/svg">
<path fill-rule="evenodd" clip-rule="evenodd" d="M4.78062 5.27764C4.80404 5.17191 4.86276 5.07731 4.94711 5.00941C5.03146 4.94151 5.13642 4.90435 5.24471 4.90405L5.24804 4.90405C5.2529 4.90405 5.2578 4.90405 5.26303 4.90433L5.2842 4.90567C5.30407 4.90767 5.32339 4.91058 5.34211 4.9143L15.723 7.13399L15.7388 7.13769H18.7877L18.8163 6.87062L5.53138 4.03045C5.43718 4.01011 5.34106 3.9999 5.24469 4C4.92978 4.00108 4.62464 4.10945 4.3796 4.30724C4.13455 4.50502 3.96423 4.78042 3.89672 5.08801L3.49405 6.96335L3.45642 7.13771H4.38112L4.78062 5.27764ZM20.6236 7.46539H3.37603C3.01121 7.46581 2.66146 7.61091 2.40349 7.86888C2.14553 8.12684 2.00042 8.4766 2 8.84142V18.0812C2.00036 18.4461 2.14544 18.7959 2.40341 19.054C2.66137 19.312 3.01116 19.4572 3.37603 19.4577H20.6236C20.9885 19.4572 21.3384 19.3121 21.5964 19.0541C21.8544 18.796 21.9996 18.4462 22 18.0812V8.84142C21.9995 8.47655 21.8544 8.12676 21.5963 7.8688C21.3383 7.61083 20.9885 7.46575 20.6236 7.46539ZM21.0956 18.0812C21.0954 18.2064 21.0456 18.3263 20.9572 18.4148C20.8687 18.5033 20.7487 18.5531 20.6236 18.5532H3.37603C3.2509 18.5531 3.13093 18.5033 3.04245 18.4148C2.95397 18.3263 2.9042 18.2064 2.90407 18.0812V8.84142C2.90421 8.71629 2.95398 8.59633 3.04246 8.50785C3.13094 8.41937 3.2509 8.3696 3.37603 8.36946H20.6236C20.7487 8.3696 20.8687 8.41937 20.9572 8.50785C21.0456 8.59633 21.0954 8.71629 21.0956 8.84142V18.0812ZM13.4919 11.7457H18.8619C19.1062 11.7457 19.3042 11.9047 19.3042 12.1008C19.3042 12.2973 19.1062 12.4563 18.8619 12.4563H13.4919C13.2476 12.4563 13.0496 12.2973 13.0496 12.1008C13.0496 11.9047 13.2476 11.7457 13.4919 11.7457ZM18.949 13.0748H13.4051C13.3108 13.0748 13.2204 13.1123 13.1537 13.179C13.0871 13.2456 13.0496 13.3361 13.0496 13.4303C13.0496 13.5246 13.0871 13.6151 13.1537 13.6817C13.2204 13.7484 13.3108 13.7859 13.4051 13.7859H18.949C19.0433 13.7859 19.1338 13.7484 19.2004 13.6817C19.2671 13.6151 19.3045 13.5246 19.3045 13.4303C19.3045 13.3361 19.2671 13.2456 19.2004 13.179C19.1338 13.1123 19.0433 13.0748 18.949 13.0748ZM13.4051 14.3943H18.949C19.043 14.3947 19.1329 14.4323 19.1992 14.4989C19.2655 14.5655 19.3027 14.6556 19.3027 14.7496C19.3027 14.8435 19.2655 14.9336 19.1992 15.0002C19.1329 15.0668 19.043 15.1044 18.949 15.1049H13.4051C13.3583 15.1051 13.3119 15.0961 13.2686 15.0783C13.2253 15.0606 13.186 15.0344 13.1528 15.0014C13.1196 14.9684 13.0933 14.9291 13.0753 14.8859C13.0574 14.8427 13.0481 14.7964 13.0481 14.7496C13.0481 14.7028 13.0574 14.6564 13.0753 14.6132C13.0933 14.57 13.1196 14.5308 13.1528 14.4977C13.186 14.4647 13.2253 14.4386 13.2686 14.4208C13.3119 14.4031 13.3583 14.394 13.4051 14.3943ZM7.02884 12.06C6.95136 12.0601 6.87564 12.0831 6.81123 12.1261C6.74683 12.1692 6.69664 12.2304 6.66701 12.302C6.63737 12.3736 6.62963 12.4523 6.64475 12.5283C6.65987 12.6043 6.69719 12.6741 6.75197 12.7289C6.80675 12.7837 6.87655 12.821 6.95253 12.8361C7.02852 12.8512 7.10728 12.8435 7.17886 12.8138C7.25044 12.7842 7.31164 12.734 7.3547 12.6696C7.39776 12.6052 7.42077 12.5295 7.4208 12.452C7.42068 12.3481 7.37934 12.2485 7.30586 12.175C7.23238 12.1015 7.13275 12.0602 7.02884 12.06ZM7.75483 10.5216C8.41301 10.5864 9.02835 10.8774 9.49602 11.3451C9.76232 11.6099 9.97344 11.9249 10.1172 12.2719C10.2609 12.6189 10.3344 12.9909 10.3333 13.3665C10.3334 14.0278 10.104 14.6687 9.68448 15.18C9.26492 15.6912 8.68108 16.0412 8.03242 16.1702C7.38377 16.2993 6.71044 16.1994 6.12717 15.8876C5.54389 15.5759 5.08676 15.0715 4.83366 14.4605C4.58055 13.8495 4.54714 13.1696 4.73911 12.5367C4.93109 11.9038 5.33657 11.3571 5.88646 10.9896C6.43636 10.6222 7.09665 10.4568 7.75483 10.5216ZM6.32572 15.5111C6.67897 15.7007 7.07368 15.8 7.47461 15.7999C7.95388 15.8002 8.42254 15.6588 8.82169 15.3936C9.22084 15.1283 9.53268 14.7509 9.718 14.3089L9.70855 14.2996L8.58356 13.1697C8.56664 13.1527 8.54626 13.1395 8.52379 13.1311C8.50133 13.1227 8.47732 13.1193 8.4534 13.121C8.42948 13.1228 8.40622 13.1296 8.3852 13.1412C8.36419 13.1527 8.34591 13.1687 8.33162 13.1879L7.48239 14.3321C7.46244 14.359 7.43719 14.3815 7.4082 14.3982C7.37921 14.415 7.3471 14.4256 7.31384 14.4295C7.28058 14.4333 7.24689 14.4303 7.21483 14.4207C7.18278 14.411 7.15305 14.3949 7.12748 14.3732L6.45187 13.8026C6.41825 13.7744 6.37488 13.7605 6.33112 13.764C6.28737 13.7675 6.24674 13.788 6.21799 13.8212L5.45014 14.7132C5.67166 15.0473 5.97247 15.3215 6.32572 15.5111ZM8.60254 12.6093L9.85399 13.8662L9.85468 13.8667L9.85552 13.8666C9.89056 13.7022 9.90818 13.5346 9.90807 13.3665C9.90841 12.7432 9.6695 12.1437 9.24062 11.6915C8.81175 11.2393 8.22566 10.969 7.60329 10.9364C7.56145 10.9342 7.5195 10.9331 7.47778 10.9331C6.83202 10.9342 6.21306 11.1914 5.75666 11.6483C5.41137 11.9914 5.17737 12.4305 5.08511 12.9085C4.99284 13.3864 5.0466 13.8811 5.23938 14.3281L6.12172 13.3064C6.16398 13.2576 6.22373 13.2274 6.28806 13.2223C6.3524 13.2172 6.41616 13.2376 6.4656 13.2791L7.12245 13.8339C7.13985 13.8486 7.16007 13.8596 7.18187 13.8661C7.20367 13.8727 7.22659 13.8747 7.24921 13.8721C7.27182 13.8695 7.29366 13.8623 7.31338 13.8509C7.3331 13.8395 7.35028 13.8242 7.36387 13.8059L8.23205 12.6362C8.25307 12.6078 8.27995 12.5844 8.31085 12.5674C8.34176 12.5504 8.37597 12.5403 8.41113 12.5378C8.4463 12.5352 8.48161 12.5403 8.51464 12.5526C8.54768 12.565 8.57766 12.5843 8.60254 12.6093Z" fill="url(#paint0_linear)"/>
<defs>
<linearGradient id="paint0_linear" x1="2" y1="20" x2="17.0698" y2="2.65166" gradientUnits="userSpaceOnUse">
<stop stop-color="#009FE3"/>
<stop offset="0.512001" stop-color="#E6007E"/>
<stop offset="1" stop-color="#FFED00"/>
</linearGradient>
</defs>
</svg>
