<svg width="24" height="24" viewBox="0 0 24 24" fill="none" xmlns="http://www.w3.org/2000/svg">
<g clip-path="url(#clip0)">
<path d="M15.6716 20.064C15.6582 20.0418 15.6429 20.0208 15.6258 20.0013C15.5568 19.9229 15.4615 19.8724 15.3579 19.8594L13.0892 19.5749V4.80668H16.9532L17.5332 7.13325C17.539 7.15626 17.5466 7.17876 17.5561 7.20052C17.5893 7.27697 17.6442 7.34205 17.7139 7.38778C17.7836 7.4335 17.8651 7.45789 17.9485 7.45794H19.2703C19.3694 7.45794 19.4653 7.42356 19.5418 7.36068C19.5527 7.35175 19.5631 7.34225 19.5732 7.33216C19.5931 7.31216 19.611 7.29027 19.6266 7.2668C19.6735 7.19635 19.6985 7.11356 19.6985 7.02891V2.38919C19.6985 2.2755 19.6534 2.16643 19.5732 2.08589C19.5632 2.07586 19.5527 2.06636 19.5418 2.05741C19.4653 1.99452 19.3694 1.96014 19.2703 1.96014H3.4081C3.32349 1.96007 3.24077 1.98519 3.17048 2.03229C3.12343 2.06371 3.0831 2.10417 3.05181 2.15131C3.0441 2.16296 3.03696 2.17494 3.03037 2.18725C2.99735 2.24945 2.98005 2.31878 2.97998 2.3892V7.02889C2.98005 7.09931 2.99737 7.16865 3.03041 7.23084C3.03697 7.24316 3.04414 7.25518 3.05185 7.26678C3.08314 7.31389 3.12347 7.35434 3.17048 7.38578C3.24078 7.43287 3.32349 7.45798 3.4081 7.45791H4.72998C4.81327 7.45798 4.89475 7.43364 4.96435 7.38789C4.97434 7.38137 4.98407 7.37437 4.99346 7.36703C5.06868 7.30809 5.12211 7.22575 5.14528 7.13304L5.72527 4.80668H9.58925V19.5749L7.3205 19.8594C7.29479 19.8627 7.26942 19.8682 7.2447 19.876C7.14516 19.9076 7.06057 19.9745 7.00681 20.064C6.96671 20.1308 6.94553 20.2072 6.94554 20.2851V21.6107C6.94535 21.7171 6.98475 21.8198 7.05607 21.8987C7.1274 21.9776 7.22554 22.0272 7.3314 22.0377C7.3454 22.0391 7.35948 22.0398 7.37363 22.0398H15.3048C15.3611 22.0398 15.4168 22.0287 15.4688 22.0071C15.5208 21.9855 15.568 21.9538 15.6077 21.914C15.6177 21.9039 15.6272 21.8933 15.636 21.8825C15.6986 21.8057 15.7328 21.7098 15.7329 21.6107V20.2851C15.7329 20.2072 15.7117 20.1308 15.6716 20.064V20.064ZM10.1826 20.3494C10.2423 20.3243 10.2955 20.286 10.3384 20.2375C10.347 20.2277 10.3551 20.2176 10.3629 20.2069C10.3705 20.1965 10.3776 20.1859 10.3842 20.1748C10.4175 20.1194 10.4378 20.0571 10.4437 19.9927C10.4449 19.9798 10.4455 19.9668 10.4455 19.9537V4.37762C10.4455 4.34936 10.4427 4.32116 10.4372 4.29343C10.4344 4.27974 10.431 4.26623 10.427 4.25292C10.4005 4.16492 10.3463 4.08781 10.2725 4.03299C10.1987 3.97817 10.1093 3.94857 10.0174 3.94857H5.39087C5.29535 3.94858 5.20259 3.98058 5.12739 4.03947C5.05228 4.09851 4.99888 4.1808 4.97556 4.27345L4.39557 6.5998H3.83623V2.81825H18.8422V6.5998H18.2829L17.7029 4.27339C17.6795 4.18071 17.6261 4.09841 17.551 4.03937C17.5415 4.03201 17.5319 4.02509 17.5221 4.0187C17.4525 3.97293 17.3709 3.94855 17.2876 3.94857H12.6611C12.5474 3.94876 12.4385 3.99405 12.3582 4.0745C12.2779 4.15495 12.2329 4.26398 12.2329 4.37762V19.9537C12.2329 19.9796 12.2353 20.0056 12.24 20.0311C12.2423 20.0438 12.2452 20.0564 12.2487 20.0688C12.259 20.106 12.2744 20.1417 12.2943 20.1749C12.301 20.1859 12.308 20.1967 12.3156 20.2071C12.3233 20.2176 12.3314 20.2277 12.3401 20.2375C12.4091 20.3159 12.5043 20.3663 12.6079 20.3793L14.8766 20.6639V21.1817H7.8018V20.6639L10.0705 20.3793C10.1091 20.3745 10.1468 20.3644 10.1826 20.3494Z" fill="url(#paint0_linear)"/>
<path d="M20.9461 15.9167V15.9167C20.9337 15.8849 20.9197 15.8533 20.9045 15.8228C20.8891 15.7921 20.8722 15.7619 20.8541 15.733C20.845 15.7183 20.8355 15.7038 20.8257 15.6898C20.8062 15.6616 20.785 15.6338 20.7625 15.6072C20.6091 15.4248 20.3997 15.2982 20.1669 15.2471L21.0023 12.4545C21.0193 12.3973 21.0242 12.3371 21.0168 12.2779C21.0093 12.2187 20.9896 12.1617 20.9589 12.1106C20.9501 12.096 20.9405 12.0819 20.93 12.0684L18.6168 9.08578L18.6142 9.08255C18.573 9.0338 18.5217 8.9946 18.4638 8.96771C18.4059 8.94081 18.3429 8.92686 18.279 8.92682H18.2787C18.247 8.92682 18.2154 8.93026 18.1844 8.93708C18.1534 8.94391 18.1232 8.95409 18.0943 8.96746C18.0798 8.97416 18.0657 8.98164 18.0521 8.98987C18.0112 9.01457 17.9746 9.04573 17.9437 9.08215L15.6278 12.0681C15.5859 12.1221 15.5575 12.1853 15.545 12.2524C15.5324 12.3196 15.536 12.3888 15.5555 12.4542L16.3908 15.2465C16.3108 15.2639 16.2331 15.2904 16.159 15.3253C16.1282 15.3398 16.0978 15.356 16.0684 15.3733C16.0389 15.3908 16.01 15.4099 15.9826 15.4298C15.9408 15.4603 15.9013 15.4937 15.8642 15.5298C15.8394 15.5539 15.8156 15.5795 15.7932 15.6059C15.782 15.6192 15.7711 15.6326 15.7604 15.6465C15.6124 15.8394 15.533 16.0763 15.5349 16.3195C15.5351 16.337 15.5356 16.3545 15.5366 16.3717C15.5385 16.4064 15.5422 16.4413 15.5474 16.4755C15.5604 16.5606 15.5834 16.644 15.616 16.7237C15.6289 16.7553 15.6434 16.7866 15.6593 16.8169C15.7153 16.9241 15.7888 17.0212 15.8768 17.1041C15.8894 17.1161 15.9025 17.1278 15.9158 17.1392C15.9421 17.1617 15.9697 17.1831 15.9976 17.2028C16.0538 17.2423 16.1137 17.2764 16.1763 17.3046C16.2076 17.3187 16.2397 17.3313 16.2718 17.3422C16.3368 17.3644 16.4037 17.3803 16.4718 17.3898C16.4907 17.3924 16.5098 17.3946 16.5289 17.3962V21.6108C16.529 21.6813 16.5463 21.7506 16.5794 21.8129C16.5859 21.8251 16.5931 21.8371 16.6008 21.8488C16.6478 21.9195 16.7148 21.9746 16.7932 22.0072C16.8061 22.0125 16.8192 22.0172 16.8324 22.0213C16.8728 22.0336 16.9148 22.0398 16.957 22.0398H19.6008C19.6998 22.0397 19.7957 22.0054 19.8722 21.9426C19.8831 21.9336 19.8936 21.9241 19.9036 21.9141C19.9434 21.8743 19.975 21.827 19.9965 21.775C20.018 21.7229 20.029 21.6671 20.0289 21.6108V17.396C20.0651 17.3928 20.1011 17.3878 20.1368 17.3809C20.1536 17.3777 20.1703 17.3741 20.187 17.3701C20.2535 17.354 20.3184 17.3318 20.3808 17.3035C20.3962 17.2965 20.4115 17.2892 20.4268 17.2813C20.581 17.2024 20.7141 17.0879 20.8151 16.9473C20.8251 16.9332 20.8348 16.919 20.8441 16.9047C20.9094 16.804 20.9577 16.6931 20.9869 16.5766C20.9952 16.5435 21.0021 16.5094 21.0073 16.4753C21.0125 16.4412 21.0161 16.4064 21.018 16.3718C21.0248 16.2512 21.0115 16.1303 20.9786 16.014C20.9693 15.9813 20.9584 15.9485 20.9461 15.9167ZM19.1726 17.4002V21.1817H17.3851V17.4002H19.1726ZM17.2756 15.2164L16.4391 12.4202L18.2789 10.048L20.1187 12.4202L19.2822 15.2164H17.2756ZM16.462 16.1429C16.4836 16.1212 16.5093 16.104 16.5376 16.0923C16.5517 16.0864 16.5662 16.082 16.5811 16.0791C16.5885 16.0775 16.596 16.0764 16.6035 16.0757C16.6111 16.0749 16.6188 16.0745 16.6266 16.0745H19.9312C19.9466 16.0746 19.9619 16.0761 19.977 16.0791C19.9844 16.0806 19.9917 16.0825 19.9989 16.0846C20.0467 16.0993 20.0886 16.129 20.1184 16.1692C20.1481 16.2095 20.1642 16.2582 20.1642 16.3083C20.1642 16.3583 20.1482 16.407 20.1184 16.4473C20.0887 16.4876 20.0468 16.5172 19.9989 16.5319C19.9916 16.5342 19.9842 16.536 19.9767 16.5376C19.9617 16.5405 19.9465 16.5421 19.9312 16.5421H16.6266C16.6188 16.5421 16.6111 16.5416 16.6035 16.5409C16.5959 16.5402 16.5884 16.539 16.5809 16.5375C16.5395 16.5291 16.5012 16.5095 16.47 16.4811C16.4388 16.4526 16.4159 16.4162 16.4037 16.3757C16.3915 16.3353 16.3905 16.2923 16.4008 16.2513C16.4111 16.2103 16.4322 16.1729 16.462 16.1429L16.462 16.1429Z" fill="url(#paint1_linear)"/>
<path d="M19.1641 12.2154C19.1204 12.1283 19.064 12.0481 18.9969 11.9774C18.9802 11.9598 18.9628 11.9427 18.9448 11.9264C18.8392 11.8304 18.7142 11.7584 18.5782 11.7153C18.4422 11.6722 18.2985 11.6589 18.1569 11.6765C18.0154 11.694 17.8792 11.7419 17.7579 11.817C17.6366 11.892 17.5329 11.9924 17.4539 12.1112C17.4359 12.1382 17.4194 12.166 17.4041 12.1946C17.3313 12.3315 17.2914 12.4835 17.2876 12.6385C17.2839 12.7935 17.3163 12.9472 17.3824 13.0875C17.3928 13.1095 17.404 13.1312 17.416 13.1525C17.428 13.1738 17.4408 13.1947 17.4544 13.2151C17.5494 13.3577 17.6797 13.4733 17.8327 13.5507C17.8545 13.5617 17.8767 13.5719 17.8993 13.5813C18.0574 13.647 18.2299 13.6705 18.3998 13.6495C18.424 13.6466 18.4481 13.6427 18.4722 13.6379C18.6401 13.6044 18.7965 13.5278 18.926 13.4158C18.9445 13.3998 18.9624 13.3832 18.9798 13.3658C19.1185 13.2265 19.2129 13.0493 19.2511 12.8565C19.2893 12.6637 19.2697 12.4639 19.1947 12.2823C19.1853 12.2596 19.1751 12.2373 19.1641 12.2154ZM18.5535 12.8469C18.5163 12.9025 18.4632 12.9455 18.401 12.9703C18.3389 12.9951 18.2707 13.0006 18.2055 12.9859C18.1402 12.9712 18.0809 12.9371 18.0354 12.8881C17.9899 12.8391 17.9603 12.7774 17.9504 12.7113C17.9406 12.6451 17.9511 12.5775 17.9804 12.5174C18.0097 12.4573 18.0566 12.4074 18.1148 12.3744C18.173 12.3415 18.2398 12.3269 18.3064 12.3326C18.3731 12.3383 18.4364 12.364 18.4882 12.4064C18.4966 12.4133 18.5046 12.4207 18.5124 12.4284C18.5665 12.4827 18.6001 12.5541 18.6076 12.6303C18.6151 12.7066 18.596 12.7831 18.5535 12.8469H18.5535Z" fill="url(#paint2_linear)"/>
</g>
<defs>
<linearGradient id="paint0_linear" x1="3.25207" y1="19.575" x2="17.8194" y2="1.49809" gradientUnits="userSpaceOnUse">
<stop stop-color="#009FE3"/>
<stop offset="0.512" stop-color="#E6007E"/>
<stop offset="1" stop-color="#FFED00"/>
</linearGradient>
<linearGradient id="paint1_linear" x1="1245.98" y1="7940.47" x2="5338.73" y2="5815.99" gradientUnits="userSpaceOnUse">
<stop stop-color="#009FE3"/>
<stop offset="0.512" stop-color="#E6007E"/>
<stop offset="1" stop-color="#FFED00"/>
</linearGradient>
<linearGradient id="paint2_linear" x1="371.86" y1="1141.26" x2="1113.65" y2="223.176" gradientUnits="userSpaceOnUse">
<stop stop-color="#009FE3"/>
<stop offset="0.512" stop-color="#E6007E"/>
<stop offset="1" stop-color="#FFED00"/>
</linearGradient>
<clipPath id="clip0">
<rect width="20" height="20" fill="white" transform="translate(2 2)"/>
</clipPath>
</defs>
</svg>
