<svg width="24" height="24" viewBox="0 0 24 24" fill="none" xmlns="http://www.w3.org/2000/svg">
<path fill-rule="evenodd" clip-rule="evenodd" d="M13.9317 4.2302H12.634V3.34785C12.6336 3.21794 12.5818 3.09347 12.4898 3.00174C12.3978 2.91001 12.2732 2.8585 12.1433 2.8585C12.0133 2.8585 11.8887 2.91001 11.7967 3.00174C11.7048 3.09347 11.6529 3.21794 11.6525 3.34785V4.2302H9.35839V3.34785C9.35839 3.2177 9.30668 3.09288 9.21466 3.00085C9.12263 2.90882 8.99781 2.85712 8.86766 2.85712C8.80322 2.85712 8.7394 2.86981 8.67987 2.89447C8.62033 2.91913 8.56623 2.95528 8.52066 3.00085C8.4751 3.04642 8.43895 3.10052 8.41429 3.16005C8.38963 3.21959 8.37694 3.2834 8.37694 3.34785V4.2302H6.07985V3.34785C6.07985 3.2177 6.02815 3.09288 5.93612 3.00085C5.84409 2.90882 5.71927 2.85712 5.58912 2.85712C5.45897 2.85712 5.33415 2.90882 5.24212 3.00085C5.15009 3.09288 5.09839 3.2177 5.09839 3.34785V4.2302H3.80354C2.81431 4.2302 2.01294 4.75047 2.01294 5.73805V18.8526C2.01354 19.3271 2.20246 19.782 2.5382 20.1173C2.87395 20.4525 3.32905 20.6408 3.80354 20.6408H13.9317C14.1668 20.6411 14.3995 20.595 14.6167 20.5052C14.8339 20.4155 15.0313 20.2838 15.1976 20.1177C15.3639 19.9517 15.4958 19.7545 15.5858 19.5374C15.6759 19.3203 15.7223 19.0876 15.7223 18.8526V5.73805C15.7223 4.75236 14.9197 4.2302 13.9317 4.2302ZM14.7694 19.0919C14.7694 19.1703 14.7538 19.248 14.7237 19.3204C14.6935 19.3929 14.6494 19.4586 14.5938 19.514C14.5382 19.5694 14.4723 19.6132 14.3997 19.6431C14.3272 19.6729 14.2494 19.6881 14.171 19.6879H3.5643C3.40598 19.6879 3.2541 19.6252 3.14193 19.5135C3.02975 19.4018 2.96643 19.2502 2.96583 19.0918V8.52023H14.7694V19.0919ZM14.7694 7.64708H2.96583V5.73805C2.96599 5.65967 2.9816 5.58209 3.01178 5.50976C3.04196 5.43743 3.0861 5.37175 3.14169 5.3165C3.19728 5.26125 3.26322 5.21751 3.33574 5.18777C3.40826 5.15804 3.48593 5.1429 3.5643 5.14322H5.09839V5.96555C5.09839 6.0957 5.15009 6.22052 5.24212 6.31254C5.33415 6.40457 5.45897 6.45628 5.58912 6.45628C5.71927 6.45628 5.84409 6.40457 5.93612 6.31254C6.02815 6.22052 6.07985 6.0957 6.07985 5.96555V5.14322H8.37691V5.96555C8.37691 6.09569 8.42862 6.22051 8.52064 6.31254C8.61267 6.40457 8.73749 6.45627 8.86764 6.45627C8.99779 6.45627 9.1226 6.40457 9.21463 6.31254C9.30666 6.22051 9.35836 6.09569 9.35836 5.96554V5.14322H11.6525V5.96555C11.6529 6.09546 11.7047 6.21992 11.7967 6.31165C11.8887 6.40338 12.0133 6.4549 12.1432 6.4549C12.2731 6.4549 12.3978 6.40338 12.4897 6.31165C12.5817 6.21992 12.6336 6.09546 12.634 5.96555V5.14322H14.171C14.3291 5.14311 14.4808 5.20563 14.593 5.3171C14.7051 5.42857 14.7686 5.57992 14.7694 5.73805V7.64708ZM19.5778 4.2342H21.4038C21.5619 4.2342 21.7135 4.297 21.8253 4.40878C21.9371 4.52056 21.9999 4.67218 21.9999 4.83026V17.6605C21.9999 17.753 21.9783 17.8443 21.9369 17.927L21.0239 20.3113C20.9744 20.4103 20.8983 20.4936 20.8042 20.5518C20.71 20.61 20.6015 20.6408 20.4908 20.6408C20.3801 20.6408 20.2716 20.61 20.1774 20.5518C20.0833 20.4936 20.0072 20.4103 19.9577 20.3113L19.0446 17.927C19.0033 17.8443 18.9817 17.753 18.9817 17.6605V4.83026C18.9817 4.67218 19.0445 4.52057 19.1563 4.40879C19.2681 4.297 19.4197 4.2342 19.5778 4.2342ZM20.4908 19.31L21.0869 17.5198V16.7664H19.8947V17.5198L20.4908 19.31ZM19.8947 15.8534H21.0869V7.57134H19.8947V15.8534ZM19.8947 6.61845H21.0869V5.14722H19.8947V6.61845ZM5.45336 11.8748H12.2821C12.3426 11.875 12.4026 11.8632 12.4586 11.8402C12.5145 11.8171 12.5654 11.7833 12.6083 11.7406C12.6511 11.6978 12.6851 11.647 12.7083 11.5911C12.7315 11.5352 12.7435 11.4753 12.7435 11.4148C12.7435 11.3543 12.7315 11.2943 12.7083 11.2384C12.6851 11.1825 12.6511 11.1318 12.6083 11.089C12.5654 11.0463 12.5145 11.0125 12.4586 10.9894C12.4026 10.9664 12.3426 10.9546 12.2821 10.9548H5.45336C5.33159 10.9551 5.21492 11.0038 5.12894 11.09C5.04296 11.1762 4.99468 11.293 4.99468 11.4148C4.99468 11.5366 5.04296 11.6534 5.12894 11.7396C5.21492 11.8258 5.33159 11.8745 5.45336 11.8748ZM5.45329 13.1324H12.2821C12.4041 13.1324 12.5211 13.1808 12.6073 13.2671C12.6936 13.3534 12.7421 13.4704 12.7421 13.5924C12.7421 13.6528 12.7302 13.7126 12.7071 13.7684C12.6839 13.8242 12.6501 13.875 12.6073 13.9177C12.5646 13.9604 12.5139 13.9943 12.4581 14.0174C12.4023 14.0405 12.3425 14.0524 12.2821 14.0524H5.45328C5.33128 14.0524 5.21428 14.0039 5.12801 13.9177C5.04174 13.8314 4.99328 13.7144 4.99328 13.5924C4.99328 13.4704 5.04174 13.3534 5.12801 13.2671C5.21428 13.1809 5.33129 13.1324 5.45329 13.1324V13.1324ZM8.66239 15.2369H5.45329C5.33129 15.2369 5.21428 15.2854 5.12801 15.3717C5.04174 15.4579 4.99328 15.5749 4.99328 15.6969C4.99328 15.7573 5.00518 15.8172 5.02829 15.873C5.05141 15.9288 5.0853 15.9795 5.12801 16.0222C5.17073 16.0649 5.22144 16.0988 5.27725 16.1219C5.33306 16.145 5.39288 16.1569 5.45329 16.1569H8.66239C8.78439 16.1569 8.9014 16.1085 8.98767 16.0222C9.07394 15.9359 9.1224 15.8189 9.1224 15.6969C9.1224 15.5749 9.07394 15.4579 8.98767 15.3717C8.9014 15.2854 8.78439 15.2369 8.66239 15.2369Z" fill="url(#paint0_linear)"/>
<defs>
<linearGradient id="paint0_linear" x1="1.5" y1="21" x2="13.8747" y2="0.00546068" gradientUnits="userSpaceOnUse">
<stop stop-color="#009FE3"/>
<stop offset="0.512001" stop-color="#E6007E"/>
<stop offset="1" stop-color="#FFED00"/>
</linearGradient>
</defs>
</svg>
