<svg width="24" height="24" viewBox="0 0 24 24" fill="none" xmlns="http://www.w3.org/2000/svg">
<path fill-rule="evenodd" clip-rule="evenodd" d="M22.0587 9.64922C22.0572 8.31759 21.5275 7.04092 20.5859 6.09932C19.6443 5.15771 18.3677 4.62806 17.036 4.62656H16.3536V2.88555C16.3601 2.78684 16.346 2.68787 16.3124 2.59483C16.2788 2.5018 16.2263 2.41672 16.1583 2.34492C16.0868 2.26973 16.0008 2.20989 15.9054 2.16906C15.81 2.12823 15.7074 2.10725 15.6036 2.10742H2.95869C2.75334 2.10771 2.55648 2.18942 2.41128 2.33462C2.26607 2.47983 2.18437 2.67668 2.18408 2.88203V19.0094C2.185 19.7975 2.49848 20.5531 3.05576 21.1104C3.61305 21.6676 4.36862 21.9811 5.15674 21.982H13.381C14.9216 21.982 16.1825 20.8313 16.3458 19.2922C16.6133 19.3942 16.8979 19.4438 17.1841 19.4383C17.8086 19.4376 18.4073 19.1892 18.8489 18.7476C19.2905 18.306 19.5388 17.7073 19.5396 17.0828C19.5377 16.8248 19.4789 16.5705 19.3673 16.3379C19.2556 16.1053 19.094 15.9003 18.8938 15.7375L21.1591 12.523C21.747 11.6803 22.0611 10.6768 22.0587 9.64922ZM15.4708 15.3324C15.0554 15.8306 14.8281 16.4588 14.8286 17.1074C14.8231 17.7061 15.0538 18.2829 15.4708 18.7125V19.0094C15.4708 20.1481 14.5333 21.0746 13.381 21.0746H5.15674C4.6092 21.074 4.08428 20.8562 3.69712 20.469C3.30996 20.0818 3.09216 19.5569 3.0915 19.0094V4.91641H15.4708V15.3324ZM15.4708 4.00899H3.0915V3.01485H15.4708L15.4708 4.00899ZM16.3782 6.81836H17.1841C17.7138 6.81708 18.2322 6.97161 18.6748 7.26272C19.1174 7.55383 19.4646 7.96867 19.6732 8.4556C19.8819 8.94254 19.9427 9.48007 19.8481 10.0013C19.7536 10.5225 19.5079 11.0045 19.1415 11.3871L16.3782 14.3414V6.81836ZM18.0192 15.393C17.9962 15.3906 17.972 15.3867 17.947 15.3824C17.9072 15.3749 17.8668 15.3706 17.8263 15.3695C17.5356 15.3695 17.2569 15.485 17.0514 15.6905C16.8458 15.896 16.7304 16.1748 16.7304 16.4654C16.7304 16.7561 16.8458 17.0348 17.0514 17.2403C17.2569 17.4459 17.5356 17.5613 17.8263 17.5613H18.2802V16.6539H17.8017C17.7517 16.6539 17.7037 16.6341 17.6684 16.5987C17.633 16.5634 17.6132 16.5154 17.6132 16.4654C17.6132 16.4154 17.633 16.3675 17.6684 16.3322C17.7037 16.2968 17.7517 16.277 17.8017 16.277C18.0145 16.2798 18.2178 16.3656 18.3684 16.5161C18.5189 16.6666 18.6047 16.87 18.6075 17.0828C18.6075 17.4669 18.455 17.8352 18.1834 18.1067C17.9118 18.3783 17.5435 18.5309 17.1595 18.5309C16.7754 18.5309 16.4071 18.3783 16.1355 18.1067C15.864 17.8352 15.7114 17.4669 15.7114 17.0828C15.7108 16.592 15.8995 16.1199 16.2384 15.7648L19.8204 12.0105C20.303 11.4954 20.6245 10.8506 20.7456 10.1552C20.8667 9.4598 20.782 8.7442 20.502 8.09628C20.222 7.44836 19.7588 6.89634 19.1694 6.50805C18.5799 6.11975 17.8899 5.91208 17.1841 5.91055H16.3782V5.5586H17.0606C17.8143 5.55671 18.5539 5.76234 19.1985 6.15294C19.843 6.54354 20.3675 7.10405 20.7146 7.77302C21.0617 8.44199 21.218 9.1936 21.1662 9.94547C21.1144 10.6973 20.8567 11.4205 20.4212 12.0355L18.0192 15.393ZM8.65249 11.6808C8.75348 11.6808 8.85219 11.6508 8.93613 11.5946C9.02008 11.5385 9.08549 11.4587 9.1241 11.3654C9.16271 11.2721 9.17277 11.1694 9.15303 11.0704C9.13329 10.9713 9.08462 10.8804 9.01318 10.809C8.94174 10.7376 8.85074 10.689 8.75169 10.6694C8.65263 10.6497 8.54997 10.6599 8.45668 10.6986C8.3634 10.7372 8.28368 10.8027 8.22761 10.8867C8.17153 10.9707 8.14163 11.0694 8.14167 11.1704C8.14187 11.3058 8.19577 11.4356 8.29154 11.5312C8.3873 11.6269 8.51712 11.6807 8.65249 11.6808ZM11.5787 15.2122C10.9148 15.7571 10.0826 16.0548 9.22372 16.0548C8.73604 16.0562 8.25294 15.9608 7.80238 15.7741C7.35182 15.5875 6.94275 15.3134 6.59887 14.9676C5.99158 14.3603 5.61366 13.5612 5.52948 12.7065C5.4453 11.8518 5.66008 10.9944 6.13722 10.2803C6.61436 9.56623 7.32433 9.03968 8.14618 8.79038C8.96803 8.54108 9.85089 8.58445 10.6443 8.91311C11.4378 9.24177 12.0927 9.83539 12.4976 10.5928C12.9024 11.3502 13.0321 12.2246 12.8646 13.0669C12.697 13.9092 12.2426 14.6674 11.5787 15.2122ZM7.78906 15.0589C8.23115 15.2926 8.72365 15.4148 9.22372 15.4149C9.82337 15.4153 10.41 15.24 10.9111 14.9106C11.4122 14.5813 11.8059 14.1124 12.0434 13.5618L10.6117 12.1239C10.5949 12.1069 10.5745 12.0938 10.5521 12.0855C10.5297 12.0771 10.5057 12.0737 10.4819 12.0754C10.458 12.0771 10.4348 12.084 10.4138 12.0955C10.3929 12.107 10.3746 12.1229 10.3604 12.1421L9.27179 13.6088C9.24235 13.6485 9.20509 13.6817 9.16232 13.7064C9.11954 13.7311 9.07216 13.7468 9.02309 13.7525C8.97402 13.7582 8.92431 13.7538 8.87701 13.7395C8.82972 13.7252 8.78585 13.7014 8.74811 13.6696L7.88204 12.938C7.8485 12.9099 7.80523 12.896 7.76157 12.8995C7.71792 12.903 7.67739 12.9235 7.64873 12.9566L6.68708 14.0737C6.96868 14.4869 7.34697 14.8251 7.78906 15.0589ZM6.34471 11.2808C6.19963 11.6717 6.13536 12.088 6.15579 12.5044C6.17315 12.8425 6.24678 13.1753 6.37365 13.4892L7.45348 12.2348C7.5158 12.1628 7.60395 12.1182 7.69887 12.1107C7.79379 12.1031 7.88788 12.1332 7.9608 12.1945L8.80285 12.9057C8.8202 12.9204 8.84037 12.9313 8.86212 12.9379C8.88387 12.9444 8.90673 12.9465 8.92929 12.9439C8.95185 12.9412 8.97364 12.934 8.99331 12.9227C9.01297 12.9113 9.0301 12.896 9.04364 12.8778L10.1566 11.3783C10.1876 11.3365 10.2273 11.3019 10.2729 11.2769C10.3185 11.2518 10.3689 11.2369 10.4208 11.2331C10.4727 11.2294 10.5248 11.2369 10.5735 11.2551C10.6223 11.2733 10.6665 11.3018 10.7032 11.3387L12.247 12.8892C12.3244 12.4601 12.3097 12.0195 12.2037 11.5966C12.0978 11.1737 11.903 10.7781 11.6325 10.4363C11.3619 10.0944 11.0216 9.81403 10.6343 9.61379C10.2471 9.41355 9.82161 9.29801 9.38623 9.27485C9.33331 9.27209 9.28049 9.27071 9.22777 9.27071C8.81082 9.27166 8.3984 9.35718 8.01545 9.5221C7.6325 9.68702 7.28699 9.92791 6.99982 10.2302C6.71264 10.5325 6.48978 10.8899 6.34471 11.2808Z" fill="url(#paint0_linear)"/>
<defs>
<linearGradient id="paint0_linear" x1="2" y1="22" x2="10.7014" y2="-0.48536" gradientUnits="userSpaceOnUse">
<stop stop-color="#009FE3"/>
<stop offset="0.512001" stop-color="#E6007E"/>
<stop offset="1" stop-color="#FFED00"/>
</linearGradient>
</defs>
</svg>
