<?xml version="1.0" standalone="no"?>
<!DOCTYPE svg PUBLIC "-//W3C//DTD SVG 20010904//EN"
 "http://www.w3.org/TR/2001/REC-SVG-20010904/DTD/svg10.dtd">
<svg version="1.0" xmlns="http://www.w3.org/2000/svg"
 width="2135.000000pt" height="2135.000000pt" viewBox="0 0 2135.000000 2135.000000"
 preserveAspectRatio="xMidYMid meet">
<metadata>
Created by potrace 1.11, written by Peter Selinger 2001-2013
</metadata>
<g transform="translate(0.000000,2135.000000) scale(0.100000,-0.100000)"
fill="#000000" stroke="none">
<path d="M15728 21345 c-2 -1 -54 -6 -117 -9 -109 -7 -136 -9 -233 -21 -24 -3
-63 -8 -88 -11 -52 -6 -273 -41 -310 -49 -14 -3 -56 -12 -95 -20 -93 -19 -97
-20 -195 -45 -47 -12 -92 -23 -100 -25 -86 -19 -489 -152 -504 -166 -6 -5 -15
-9 -22 -9 -35 0 -449 -190 -644 -296 -197 -106 -576 -353 -648 -421 -7 -7 -17
-13 -20 -13 -4 0 -19 -10 -32 -22 -14 -13 -72 -61 -129 -107 -144 -116 -191
-160 -386 -356 -337 -337 -574 -639 -805 -1025 -237 -395 -449 -883 -556
-1275 -21 -78 -64 -245 -69 -270 -3 -11 -9 -40 -15 -65 -10 -47 -12 -59 -35
-180 -20 -108 -23 -125 -35 -220 -6 -47 -13 -95 -15 -107 -2 -12 -6 -57 -10
-100 -4 -43 -8 -89 -11 -103 -2 -14 -6 -110 -10 -215 -4 -104 -8 -192 -10
-194 -2 -2 -5 49 -5 115 -2 175 -13 336 -33 504 -14 116 -17 141 -32 235 -120
753 -421 1506 -852 2135 -47 69 -91 130 -97 136 -5 6 -17 22 -25 34 -20 30
-165 215 -204 261 -130 149 -179 201 -312 334 -213 212 -331 316 -534 468 -63
48 -119 90 -125 95 -20 16 -206 142 -209 142 -2 0 -30 18 -62 39 -239 159
-661 365 -1000 489 -212 78 -623 194 -764 216 -57 9 -94 16 -107 21 -6 2 -38
7 -70 11 -32 3 -61 8 -64 10 -4 2 -31 6 -60 10 -30 3 -65 7 -79 10 -14 2 -56
6 -95 9 -38 4 -75 8 -82 10 -28 9 -304 19 -503 19 -193 0 -349 -6 -480 -18
-82 -8 -155 -16 -180 -21 -14 -2 -47 -7 -75 -10 -64 -8 -91 -12 -195 -31 -47
-9 -98 -18 -115 -21 -44 -7 -306 -71 -410 -100 -487 -137 -987 -365 -1425
-651 -338 -220 -573 -413 -875 -716 -263 -264 -474 -521 -647 -786 -37 -58
-72 -109 -76 -115 -13 -16 -72 -115 -72 -120 0 -2 -13 -24 -30 -48 -32 -48
-236 -446 -262 -512 -9 -22 -39 -94 -66 -160 -43 -105 -127 -332 -138 -375 -2
-8 -19 -69 -39 -135 -19 -66 -37 -129 -40 -140 -2 -11 -9 -40 -16 -65 -6 -25
-12 -52 -14 -60 -15 -62 -64 -305 -69 -345 -4 -27 -9 -57 -11 -65 -2 -8 -6
-35 -9 -60 -3 -25 -10 -83 -16 -130 -21 -178 -34 -403 -34 -610 0 -147 12
-452 19 -472 2 -7 6 -47 9 -88 3 -41 8 -84 10 -95 2 -11 7 -47 11 -80 13 -108
21 -154 60 -350 140 -699 451 -1410 879 -2005 508 -706 1176 -1278 1929 -1651
100 -50 190 -95 199 -100 99 -52 548 -215 755 -273 167 -47 478 -114 603 -131
40 -5 127 -18 143 -21 10 -2 48 -6 85 -9 37 -4 78 -8 92 -10 155 -25 820 -26
1015 -1 17 2 57 7 90 10 159 17 364 51 525 87 74 17 143 32 152 34 112 25 476
135 543 164 11 5 85 34 165 66 274 107 641 299 916 477 148 96 450 320 484
358 3 3 19 16 35 29 150 115 544 512 664 669 19 25 43 54 53 64 67 67 312 422
438 633 74 125 242 451 283 550 14 33 44 105 67 160 23 55 43 107 45 115 2 8
22 66 45 129 77 214 149 485 194 721 3 14 10 50 16 80 11 55 13 70 25 165 3
28 8 57 10 65 2 8 7 47 11 85 3 39 8 79 10 90 2 11 7 67 10 125 4 58 8 119 9
135 1 17 3 68 4 114 0 46 3 82 5 80 2 -2 7 -83 10 -179 4 -96 8 -186 10 -200
3 -14 7 -61 11 -104 4 -43 8 -86 10 -95 1 -9 6 -43 10 -76 15 -132 24 -184 66
-385 22 -102 41 -196 44 -210 6 -25 16 -62 56 -200 13 -41 24 -79 25 -85 6
-27 58 -186 74 -225 10 -25 41 -104 69 -176 65 -166 59 -153 167 -373 100
-205 257 -482 304 -538 5 -7 10 -15 10 -18 0 -8 204 -301 220 -315 3 -3 18
-23 34 -45 138 -187 448 -521 661 -711 413 -367 901 -687 1365 -892 41 -18 89
-40 105 -47 17 -8 64 -27 105 -43 41 -16 84 -33 95 -37 11 -5 22 -9 25 -10 3
-1 17 -6 31 -12 63 -27 348 -116 484 -151 190 -50 226 -58 365 -82 30 -6 66
-12 80 -15 13 -2 42 -7 64 -11 22 -3 43 -7 46 -9 3 -1 36 -6 75 -10 38 -4 72
-8 75 -10 3 -1 41 -6 85 -10 44 -4 94 -8 110 -10 197 -23 739 -23 925 0 14 1
57 6 95 9 39 3 81 8 95 10 14 2 50 7 80 11 30 4 64 9 75 11 11 2 40 7 65 10
37 4 293 55 350 69 289 69 650 185 825 265 23 11 66 29 96 40 158 63 530 261
752 403 178 113 428 301 616 463 175 151 444 422 577 583 10 13 24 28 29 35 6
6 51 62 100 125 360 458 666 1018 839 1536 15 44 31 89 36 100 42 93 174 640
195 810 3 28 8 59 10 70 3 11 7 43 10 70 3 28 7 64 10 80 6 35 13 102 23 235
15 198 7 816 -12 940 -2 14 -7 52 -10 85 -4 33 -8 71 -11 85 -2 14 -6 45 -9
70 -3 25 -8 56 -11 70 -2 13 -7 42 -11 65 -3 22 -17 94 -31 160 -14 66 -26
127 -28 135 -46 220 -188 659 -285 875 -9 22 -30 69 -46 105 -124 284 -328
640 -519 905 -20 28 -44 61 -53 75 -28 42 -220 280 -286 355 -247 281 -538
549 -836 771 -159 118 -239 170 -490 324 -267 163 -707 361 -1045 469 -199 64
-548 152 -695 175 -19 3 -58 10 -85 15 -28 5 -75 12 -105 16 -30 3 -66 8 -80
10 -32 5 -87 12 -170 20 -36 3 -85 8 -110 11 -50 5 -666 14 -672 9z m-5091
-5372 c-3 -10 -5 -4 -5 12 0 17 2 24 5 18 2 -7 2 -21 0 -30z"/>
<path d="M5068 10594 c-2 -1 -48 -5 -103 -8 -55 -4 -119 -8 -142 -11 -24 -3
-62 -7 -85 -10 -94 -10 -146 -17 -198 -25 -30 -5 -71 -12 -90 -15 -19 -3 -57
-10 -85 -15 -27 -5 -63 -12 -78 -14 -61 -10 -189 -40 -332 -78 -159 -41 -503
-154 -519 -169 -6 -5 -16 -9 -23 -9 -24 0 -300 -123 -483 -216 -369 -187 -703
-407 -1020 -673 -189 -158 -521 -493 -675 -682 -248 -302 -451 -611 -623 -949
-32 -64 -64 -124 -69 -135 -67 -127 -226 -527 -268 -675 -8 -25 -30 -101 -50
-170 -31 -108 -96 -381 -110 -459 -2 -14 -11 -66 -19 -116 -9 -49 -18 -112
-21 -140 -3 -27 -8 -63 -10 -80 -2 -16 -6 -59 -10 -95 -3 -36 -8 -74 -10 -86
-8 -38 -19 -330 -18 -494 0 -162 8 -341 18 -450 9 -85 35 -302 41 -335 27
-157 49 -274 66 -345 11 -47 22 -96 24 -109 25 -129 150 -515 234 -726 50
-126 227 -494 290 -605 94 -164 228 -373 324 -505 51 -70 186 -246 196 -255 3
-3 25 -30 50 -60 25 -30 47 -57 50 -60 3 -3 27 -30 54 -60 137 -153 369 -379
512 -500 113 -95 150 -125 234 -188 52 -40 100 -76 106 -81 20 -17 313 -211
318 -211 3 0 24 -13 48 -29 24 -15 70 -43 103 -60 33 -18 65 -37 70 -41 23
-18 360 -182 480 -233 269 -115 628 -235 815 -273 14 -3 50 -11 80 -19 47 -12
120 -26 245 -50 17 -3 46 -8 65 -11 19 -2 60 -9 90 -14 30 -5 82 -12 115 -16
33 -3 68 -8 78 -10 73 -13 250 -19 607 -19 366 0 464 4 585 20 17 2 57 7 90
10 33 4 67 8 75 10 8 2 35 7 60 10 146 19 559 112 715 162 360 115 611 217
897 366 180 95 184 97 246 135 29 17 55 32 58 32 2 0 17 8 32 19 15 10 90 60
166 111 448 296 824 639 1201 1094 22 27 44 56 49 65 5 9 12 18 16 21 4 3 31
39 62 80 236 322 432 659 583 1000 25 58 52 119 60 135 61 138 214 605 240
732 2 10 11 50 20 88 16 67 47 222 59 295 3 19 8 44 10 56 2 12 7 45 11 75 3
30 8 61 10 69 7 28 18 133 32 310 16 207 9 768 -13 935 -2 17 -6 55 -9 85 -3
30 -8 66 -10 80 -2 14 -7 45 -10 70 -10 76 -51 296 -79 423 -61 276 -184 645
-308 926 -59 133 -194 404 -245 491 -14 25 -34 59 -43 76 -51 89 -233 366
-292 444 -75 99 -254 320 -308 381 -171 193 -449 457 -645 614 -27 22 -52 43
-55 46 -13 14 -306 222 -385 273 -49 32 -102 67 -117 77 -15 10 -30 19 -32 19
-3 0 -36 19 -73 42 -96 59 -447 235 -580 291 -430 182 -905 314 -1333 372 -25
4 -58 8 -75 11 -48 6 -125 14 -195 19 -36 3 -87 8 -115 11 -49 6 -622 13 -627
8z"/>
</g>
</svg>
