<svg width="62" height="56" viewBox="0 0 62 56" fill="none" xmlns="http://www.w3.org/2000/svg">
<path d="M59 23H50V5C50 3.346 48.654 2 47 2H19.897C17.895 0.74 15.535 0 13 0C5.832 0 0 5.832 0 13C0 18.375 2.921 21.259 5.268 23.576C6.307 24.602 7.227 25.518 7.724 26.473C7.285 26.84 7 27.384 7 28V32C7 33.223 7.369 34.36 8 35.31V53C8 54.654 9.346 56 11 56H47C48.654 56 50 54.654 50 53V31H59C60.654 31 62 29.654 62 28V26C62 24.346 60.654 23 59 23ZM45.872 25H50V29H45.872C45.949 28.343 46 27.678 46 27C46 26.322 45.949 25.657 45.872 25ZM48 5V23H45.505C43.699 15.553 36.994 10 29 10C27.894 10 26.794 10.106 25.718 10.317C25.207 7.894 24.016 5.722 22.359 4H47C47.551 4 48 4.449 48 5ZM17 28V30H9V28H17ZM12 14H14V26H12V14ZM25.511 16.577C26.633 16.201 27.802 16 29 16C35.065 16 40 20.935 40 27C40 33.065 35.065 38 29 38C24.692 38 20.791 35.483 19 31.577V28C19 27.384 18.715 26.84 18.276 26.473C18.773 25.518 19.693 24.602 20.732 23.576C22.495 21.835 24.582 19.774 25.511 16.577ZM9 32H17C17 34.206 15.206 36 13 36C10.794 36 9 34.206 9 32ZM18.422 34.553C20.831 37.925 24.748 40 29 40C36.168 40 42 34.168 42 27C42 19.832 36.168 14 29 14C27.954 14 26.927 14.136 25.925 14.38C25.969 13.937 26 13.482 26 13C26 12.767 25.977 12.541 25.965 12.311C26.959 12.107 27.976 12 29 12C37.271 12 44 18.729 44 27C44 35.271 37.271 42 29 42C24.388 42 20.065 39.855 17.228 36.252C17.72 35.763 18.122 35.187 18.422 34.553ZM6.673 22.152C4.483 19.99 2 17.54 2 13C2 6.935 6.935 2 13 2C19.065 2 24 6.935 24 13C24 17.54 21.517 19.99 19.327 22.152C18.076 23.387 16.889 24.566 16.289 26H16V15.816C16.314 15.928 16.648 16 17 16C18.654 16 20 14.654 20 13C20 11.346 18.654 10 17 10C15.698 10 14.598 10.839 14.184 12H11.815C11.401 10.839 10.301 10 8.999 10C7.345 10 5.999 11.346 5.999 13C5.999 14.654 7.345 16 8.999 16C9.351 16 9.685 15.928 9.999 15.816V26H9.711C9.111 24.566 7.924 23.387 6.673 22.152ZM16 13C16 12.449 16.449 12 17 12C17.551 12 18 12.449 18 13C18 13.551 17.551 14 17 14C16.449 14 16 13.551 16 13ZM10 13C10 13.551 9.551 14 9 14C8.449 14 8 13.551 8 13C8 12.449 8.449 12 9 12C9.551 12 10 12.449 10 13ZM48 53C48 53.551 47.551 54 47 54H11C10.449 54 10 53.551 10 53V37.188C10.884 37.701 11.907 38 13 38C13.919 38 14.788 37.786 15.567 37.415C18.781 41.553 23.735 44 29 44C36.994 44 43.699 38.447 45.505 31H48V53ZM60 28C60 28.551 59.551 29 59 29H52V25H59C59.551 25 60 25.449 60 26V28Z" fill="url(#paint0_linear)"/>
<defs>
<linearGradient id="paint0_linear" x1="0" y1="0" x2="72.2651" y2="21.5043" gradientUnits="userSpaceOnUse">
<stop stop-color="#009FE3"/>
<stop offset="0.512001" stop-color="#E6007E"/>
<stop offset="1" stop-color="#FFED00"/>
</linearGradient>
</defs>
</svg>
