<svg width="52" height="62" viewBox="0 0 52 62" fill="none" xmlns="http://www.w3.org/2000/svg">
<path d="M50.2696 17.1321H43.3512L43.1623 14.5914C43.1617 14.5833 43.157 14.5771 43.1561 14.5691C43.1539 14.5237 43.1579 14.4895 43.1488 14.4358C43.9328 12.9987 45.0507 10.1661 43.418 7.69994C41.6756 5.06622 42.3953 1.12923 42.4021 1.08963C42.4057 1.07089 42.399 1.05328 42.4015 1.03439C42.4091 0.976903 42.4028 0.920821 42.3996 0.862767C42.3958 0.799217 42.3953 0.737076 42.379 0.676767C42.3662 0.628012 42.3408 0.58419 42.3197 0.537408C42.2901 0.47259 42.2614 0.410167 42.2179 0.353804C42.2084 0.341545 42.2064 0.326186 42.1961 0.314209C42.1718 0.285463 42.138 0.272077 42.1112 0.246995C42.0605 0.19965 42.0109 0.154841 41.9497 0.119614C41.8971 0.0893182 41.8422 0.0715636 41.7855 0.0522591C41.7446 0.0383091 41.7105 0.0118181 41.6666 0.00364541C41.6486 0.000122688 41.6316 0.00674563 41.6136 0.00420927C41.5513 -0.00424526 41.4909 0.00195472 41.4281 0.00618199C41.3709 0.0104093 41.3152 0.0101275 41.2608 0.0246411C41.2007 0.0400002 41.1464 0.0700134 41.0894 0.0976316C41.0389 0.122713 40.9889 0.14385 40.9437 0.177386C40.9268 0.189645 40.9067 0.193027 40.8905 0.206554C39.757 1.17093 38.6911 2.37105 37.7272 3.7762C34.6371 8.27401 36.3182 12.4768 37.408 14.377L37.2072 17.1317H33.1203L33.8623 13.8894C33.9437 13.5347 33.8102 13.1652 33.5205 12.9443C33.4713 12.9055 28.859 9.23388 28.2976 3.29725C28.539 3.04108 28.6926 2.70008 28.6926 2.3199C28.6926 1.52955 28.0528 0.888835 27.2637 0.888835C26.4747 0.888835 25.835 1.52955 25.835 2.3199C25.835 2.70008 25.9889 3.04108 26.2302 3.29739C25.6686 9.23374 21.0564 12.9057 21.0072 12.9443C20.7175 13.1641 20.584 13.5347 20.6655 13.8894L21.4064 17.1317H18.4403L18.4228 12.2621C18.4219 12.2152 18.4048 12.171 18.3978 12.125C18.3906 12.0777 18.3868 12.0325 18.3723 11.9862C18.3677 11.9713 18.3695 11.9551 18.364 11.9403L15.9595 5.48937C15.9593 5.48923 15.9593 5.48908 15.9593 5.48894L14.7369 2.20915C14.4745 1.50996 13.825 1.05891 13.0806 1.05891C13.0806 1.05891 13.0783 1.05891 13.0761 1.05891C12.3294 1.06117 11.6777 1.51672 11.4197 2.22169L7.86277 11.9779C7.85714 11.9943 7.85883 12.0122 7.85376 12.0287C7.84153 12.069 7.83899 12.1086 7.83238 12.1498C7.82408 12.2001 7.80608 12.2486 7.80608 12.2999L7.82296 17.1321H0.927754C0.416259 17.1321 0 17.5481 0 18.0603V49.6112C0 50.1235 0.416399 50.5393 0.927754 50.5393H20.1952V54.4094H13.2869C13.0019 54.4094 12.7304 54.5409 12.556 54.7674L8.10276 60.5017C7.88542 60.7816 7.84476 61.1613 8.00091 61.4798C8.15706 61.7982 8.48062 62 8.83357 62H44.1802C44.5332 62 44.8567 61.7982 45.0129 61.4798C45.169 61.1613 45.1282 60.7817 44.911 60.5017L40.4578 54.7674C40.4463 54.7525 40.4291 54.746 40.4169 54.7321C40.3736 54.6826 40.323 54.6447 40.2703 54.6054C40.2234 54.5706 40.1798 54.5349 40.1284 54.5097C40.0801 54.486 40.0282 54.4746 39.9754 54.4595C39.9093 54.4408 39.8459 54.4233 39.7774 54.4194C39.7598 54.4184 39.7449 54.4091 39.7271 54.4091H32.8189V50.539H50.2692C50.7807 50.539 51.197 50.1231 51.197 49.6109V18.06C51.1974 17.5481 50.781 17.1321 50.2696 17.1321ZM42.8794 35.1714L42.8883 35.3426H38.0677L38.1135 32.8354C38.4429 32.73 39.2148 32.5929 40.4381 32.6114C41.5917 32.635 42.3482 32.7914 42.7083 32.9112L42.8794 35.1714ZM42.5616 30.9743C41.9798 30.8572 41.3145 30.7719 40.4741 30.7552C39.9553 30.7411 39.0042 30.7718 38.1479 30.9406L38.1707 29.6933C38.5396 29.5982 39.2479 29.4915 40.2932 29.5131C41.3771 29.5346 42.1192 29.6819 42.4723 29.7953L42.5616 30.9743ZM38.2907 27.7948L39.2393 14.7829C39.4302 14.7203 39.7896 14.6514 40.2772 14.6831C40.8011 14.7152 41.1589 14.8375 41.3303 14.9256L42.2921 27.8541C41.7402 27.7482 41.1105 27.6726 40.3292 27.6567C39.873 27.6519 39.0622 27.671 38.2907 27.7948ZM39.2522 4.82836C39.6195 4.2946 40.0085 3.81481 40.4027 3.35079C40.4335 4.95152 40.7348 7.00484 41.8747 8.72675C42.8228 10.1606 42.3377 11.8847 41.7457 13.1123C41.3411 12.9691 40.8873 12.8609 40.3948 12.8292C39.8017 12.7924 39.236 12.8552 38.7675 12.9914C37.9099 11.2744 36.9814 8.13578 39.2522 4.82836ZM32.6956 18.9884H37.0719L36.3276 29.197C36.3276 29.1983 36.3265 29.2002 36.3265 29.2014L36.3262 29.2173L36.3173 29.3375C36.3162 29.353 36.3232 29.3664 36.3229 29.3819L36.2122 35.3427H33.749L32.9796 22.428C32.9514 21.9555 32.572 21.5923 32.1059 21.5655L32.6956 18.9884ZM27.2643 7.20282C28.5724 10.7596 30.9186 13.1409 31.9299 14.0304L30.2081 21.5554H28.192V18.6021C29.285 18.2144 30.0815 17.1959 30.0815 15.9696C30.0815 14.4137 28.8166 13.1489 27.2643 13.1489C25.7119 13.1489 24.4471 14.4137 24.4471 15.9696C24.4471 17.1961 25.2436 18.2144 26.3365 18.6021V21.5554H24.3186L22.5984 14.0304C23.6097 13.1416 25.9563 10.7605 27.2643 7.20282ZM30.9456 23.4116H31.181L31.4322 27.6281C28.9297 27.1316 26.0199 27.1406 23.5422 27.6626L23.7954 23.4116H30.9456ZM26.3025 15.9695C26.3025 15.438 26.7324 15.0051 27.2643 15.0051C27.7962 15.0051 28.2261 15.438 28.2261 15.9695C28.2261 16.501 27.7962 16.9338 27.2643 16.9338C26.7324 16.9338 26.3025 16.501 26.3025 15.9695ZM31.5457 29.538L31.8914 35.3426H23.0847L23.4285 29.5689C25.8966 28.9511 29.05 28.9498 31.5457 29.538ZM21.8311 18.9884L22.4512 21.7015C22.1984 21.8542 22.0151 22.1121 21.9963 22.428L21.2269 35.3427H18.5061L18.4475 18.9886L21.8311 18.9884ZM16.6508 35.3426H14.1232L14.0502 14.6367C14.9195 14.5329 15.7696 14.2867 16.5754 13.8994L16.6508 35.3426ZM12.9995 2.85987L13.7713 4.92925L12.2777 4.93419L12.9995 2.85987ZM11.6312 6.79277L14.4627 6.78305L16.3707 11.8993C15.3754 12.521 14.2552 12.8535 13.125 12.8586C13.123 12.8586 13.1215 12.8575 13.1197 12.8575H13.1174C13.1157 12.8575 13.114 12.8585 13.1125 12.8585C11.9791 12.8613 10.8525 12.5349 9.84882 11.9155L11.6312 6.79277ZM12.1949 14.642L12.2679 35.3426H9.74261L9.66735 13.9236C10.4753 14.305 11.3262 14.5442 12.1949 14.642ZM8.82021 37.1988H10.6078V38.7219C10.6078 39.2342 11.0242 39.65 11.5355 39.65C12.047 39.65 12.4633 39.2341 12.4633 38.7219V37.1988H13.1986H13.2008H17.052V38.7219C17.052 39.2342 17.4684 39.65 17.9797 39.65C18.4912 39.65 18.9075 39.2341 18.9075 38.7219V37.1988H22.1002H23.4964V38.7219C23.4964 39.2342 23.9128 39.65 24.4242 39.65C24.9357 39.65 25.352 39.2341 25.352 38.7219V37.1988H29.9408V38.7219C29.9408 39.2342 30.3572 39.65 30.8685 39.65C31.38 39.65 31.7963 39.2341 31.7963 38.7219V37.1988H32.8757H36.3853V38.7219C36.3853 39.2342 36.8017 39.65 37.313 39.65C37.8245 39.65 38.2408 39.2341 38.2408 38.7219V37.1988H42.8296V38.7219C42.8296 39.2342 43.246 39.65 43.7574 39.65C44.2688 39.65 44.6851 39.2341 44.6851 38.7219V37.1988H45.9931V45.6347H41.4631V44.1128C41.4631 43.6004 41.0467 43.1846 40.5353 43.1846C40.0238 43.1846 39.6076 43.6006 39.6076 44.1128V45.6347H35.0185V44.1128C35.0185 43.6004 34.6021 43.1846 34.0907 43.1846C33.5792 43.1846 33.163 43.6006 33.163 44.1128V45.6347H28.5741V44.1128C28.5741 43.6004 28.1577 43.1846 27.6464 43.1846C27.135 43.1846 26.7186 43.6006 26.7186 44.1128V45.6347H22.1298V44.1128C22.1298 43.6004 21.7134 43.1846 21.202 43.1846C20.6905 43.1846 20.2743 43.6006 20.2743 44.1128V45.6347H15.6854V44.1128C15.6854 43.6004 15.269 43.1846 14.7577 43.1846C14.2462 43.1846 13.8299 43.6006 13.8299 44.1128V45.6347H9.24111V44.1128C9.24111 43.6004 8.82471 43.1846 8.31335 43.1846C7.802 43.1846 7.3856 43.6006 7.3856 44.1128V45.6347H6.6026V37.1988H8.81781H8.82021ZM39.2745 56.266L42.2845 60.1441H10.73L13.7395 56.266H20.1951V57.72C20.1951 58.2324 20.6115 58.6482 21.1228 58.6482H31.8914C32.4029 58.6482 32.8191 58.2322 32.8191 57.72V56.266H39.2745ZM22.0506 56.7917V50.5396H30.9636V56.7917H22.0506ZM49.342 48.6834H31.8914H21.1228H1.85537V18.9886H7.82971L7.88682 35.3427H5.67484C5.16335 35.3427 4.74709 35.7587 4.74709 36.2709V46.5632C4.74709 47.0755 5.16349 47.4913 5.67484 47.4913H46.9206C47.4321 47.4913 47.8483 47.0754 47.8483 46.5632V36.2709C47.8483 35.7586 47.4319 35.3427 46.9206 35.3427H44.7258L44.5281 32.5847C44.5333 32.545 44.5516 32.5099 44.5516 32.4689C44.5516 32.4272 44.5162 32.3986 44.5119 32.3581L44.2959 29.3434C44.2959 29.2942 44.2555 29.2604 44.2499 29.2133L43.4892 18.9887H49.3417V48.6834H49.342Z" fill="url(#paint0_linear)"/>
<defs>
<linearGradient id="paint0_linear" x1="0" y1="0" x2="61.908" y2="13.7402" gradientUnits="userSpaceOnUse">
<stop stop-color="#009FE3"/>
<stop offset="0.512001" stop-color="#E6007E"/>
<stop offset="1" stop-color="#FFED00"/>
</linearGradient>
</defs>
</svg>
