<svg width="62" height="58" viewBox="0 0 62 58" fill="none" xmlns="http://www.w3.org/2000/svg">
<path fill-rule="evenodd" clip-rule="evenodd" d="M55.0289 12.0381H52.9439L52.0627 1.62081C52.0252 1.17903 51.8234 0.767372 51.497 0.46725C51.1707 0.167127 50.7436 0.000386913 50.3002 0H11.6997C11.2564 0.000386913 10.8293 0.167127 10.5029 0.46725C10.1766 0.767372 9.97474 1.17903 9.9373 1.62081L9.05608 12.0381H6.97106C5.1235 12.0422 3.3528 12.778 2.04637 14.0844C0.73994 15.3909 0.00415651 17.1616 0 19.0091V32.967C0.0019485 34.7151 0.660581 36.3986 1.84536 37.6839C3.03013 38.9692 4.65457 39.7625 6.3967 39.9066L5.14568 55.6898C5.12963 55.9325 5.16245 56.1759 5.24219 56.4056C5.32193 56.6354 5.44696 56.8468 5.60989 57.0274C5.77712 57.2063 5.97937 57.3489 6.20406 57.4464C6.42874 57.5438 6.67107 57.594 6.91598 57.5939H55.6269C55.8783 57.5969 56.1275 57.5466 56.3581 57.4462C56.5887 57.3459 56.7953 57.1977 56.9644 57.0116C57.1287 56.8278 57.2533 56.612 57.3305 56.3778C57.4077 56.1436 57.4357 55.896 57.4129 55.6505L55.8393 39.9144C57.5403 39.7154 59.1085 38.8971 60.2447 37.6157C61.381 36.3344 62.0058 34.6796 62 32.967V19.0091C61.9958 17.1616 61.26 15.3909 59.9536 14.0844C58.6472 12.778 56.8765 12.0422 55.0289 12.0381ZM13.3284 3.54061H48.6794L49.3875 12.0381H12.6124L13.3284 3.54061ZM8.82791 54.0533L10.7084 30.1896H12.4944L11.7942 37.3416C11.7722 37.5666 11.7976 37.7938 11.8686 38.0084C11.9397 38.223 12.0549 38.4204 12.2068 38.5879C12.3587 38.7554 12.544 38.8892 12.7507 38.9808C12.9574 39.0724 13.181 39.1197 13.4071 39.1198H28.3563C28.7781 39.1199 29.1834 38.9557 29.486 38.6619C29.7887 38.368 29.9648 37.9678 29.9771 37.5462L30.3076 30.166H51.3231L53.6835 54.0297L8.82791 54.0533ZM27.066 30.3705L26.8221 35.8781H15.201L15.7439 30.3705H27.066ZM58.4594 32.967C58.4591 33.7976 58.1575 34.5999 57.6106 35.225C57.0636 35.8501 56.3085 36.2555 55.4852 36.366L54.8715 30.1896H55.3908C55.6229 30.1906 55.853 30.1458 56.0677 30.0577C56.2824 29.9696 56.4776 29.8399 56.6421 29.6762C56.8066 29.5124 56.9372 29.3178 57.0262 29.1034C57.1153 28.8891 57.1611 28.6592 57.1611 28.4271V27.3414C57.1611 26.8718 56.9746 26.4216 56.6426 26.0896C56.3106 25.7576 55.8603 25.571 55.3908 25.571H6.60913C6.13962 25.571 5.68933 25.7576 5.35734 26.0896C5.02534 26.4216 4.83883 26.8718 4.83883 27.3414V28.4271C4.83883 28.6592 4.88467 28.8891 4.97373 29.1034C5.0628 29.3178 5.19332 29.5124 5.35781 29.6762C5.5223 29.8399 5.71752 29.9696 5.93226 30.0577C6.147 30.1458 6.37702 30.1906 6.60913 30.1896H7.13629L6.6406 36.3817C5.78345 36.3107 4.98425 35.9203 4.40136 35.2878C3.81846 34.6554 3.49441 33.8271 3.4934 32.967V19.0091C3.4934 18.0993 3.85482 17.2268 4.49816 16.5834C5.14149 15.9401 6.01404 15.5787 6.92385 15.5787H55.0289C55.9387 15.5787 56.8113 15.9401 57.4546 16.5834C58.0979 17.2268 58.4594 18.0993 58.4594 19.0091V32.967ZM48.6952 40.5989H34.1472C33.9275 40.5964 33.7096 40.6398 33.5077 40.7266C33.3058 40.8133 33.1243 40.9414 32.9749 41.1025C32.8301 41.2656 32.7199 41.4564 32.6509 41.6633C32.5819 41.8702 32.5556 42.0889 32.5736 42.3063L32.9592 51.0398C32.9734 51.4621 33.1513 51.8624 33.4552 52.156C33.7591 52.4496 34.1653 52.6136 34.5878 52.6134H49.5607C49.7834 52.608 50.0027 52.5567 50.2047 52.4627C50.4068 52.3687 50.5873 52.2341 50.7349 52.0672C50.8826 51.9003 50.9943 51.7048 51.063 51.4928C51.1317 51.2809 51.156 51.057 51.1343 50.8352L50.2688 42.0939C50.2378 41.6942 50.0598 41.3202 49.7692 41.0441C49.4785 40.768 49.0959 40.6094 48.6952 40.5989ZM36.1064 49.3403L35.8624 43.8327H47.2239L47.7668 49.3403H36.1064ZM29.8349 18.4274C30.1795 18.1964 30.5851 18.073 31 18.073C31.551 18.073 32.0798 18.2902 32.4716 18.6776C32.8635 19.065 33.0867 19.5913 33.0929 20.1423C33.0976 20.5572 32.9788 20.9641 32.7517 21.3114C32.5246 21.6587 32.1994 21.9306 31.8174 22.0926C31.4354 22.2546 31.0139 22.2995 30.6064 22.2214C30.1989 22.1433 29.8237 21.9459 29.5287 21.6542C29.2336 21.3624 29.0319 20.9896 28.9492 20.583C28.8666 20.1763 28.9066 19.7543 29.0643 19.3705C29.222 18.9867 29.4902 18.6584 29.8349 18.4274ZM38.6475 18.073C38.2326 18.073 37.827 18.1964 37.4824 18.4274C37.1377 18.6584 36.8695 18.9867 36.7118 19.3705C36.5541 19.7543 36.5141 20.1763 36.5967 20.583C36.6794 20.9896 36.8811 21.3624 37.1762 21.6542C37.4712 21.9459 37.8464 22.1433 38.2539 22.2214C38.6614 22.2995 39.0829 22.2546 39.4649 22.0926C39.8469 21.9306 40.1721 21.6587 40.3992 21.3114C40.6263 20.9641 40.7451 20.5572 40.7404 20.1423C40.7322 19.592 40.5083 19.0669 40.1169 18.6799C39.7255 18.2929 39.1979 18.075 38.6475 18.073ZM25.4452 20.1659C25.4452 21.3218 24.5082 22.2588 23.3523 22.2588C22.1964 22.2588 21.2594 21.3218 21.2594 20.1659C21.2594 19.01 22.1964 18.073 23.3523 18.073C24.5082 18.073 25.4452 19.01 25.4452 20.1659ZM37.2943 34.2416C37.5171 34.2571 37.7408 34.2266 37.9514 34.152C38.162 34.0774 38.355 33.9602 38.5183 33.8078C38.6817 33.6554 38.812 33.4711 38.901 33.2662C38.9901 33.0613 39.0361 32.8403 39.0361 32.6169C39.0361 32.3935 38.9901 32.1724 38.901 31.9675C38.812 31.7626 38.6817 31.5783 38.5183 31.4259C38.355 31.2735 38.162 31.1563 37.9514 31.0817C37.7408 31.0071 37.5171 30.9766 37.2943 30.9921H33.3603C32.9489 31.0208 32.5637 31.2044 32.2824 31.5059C32.0011 31.8075 31.8447 32.2045 31.8447 32.6169C31.8447 33.0292 32.0011 33.4263 32.2824 33.7278C32.5637 34.0293 32.9489 34.213 33.3603 34.2416H37.2943ZM46.3741 34.2417H41.1576C40.7462 34.2131 40.361 34.0294 40.0797 33.7279C39.7985 33.4263 39.642 33.0293 39.642 32.617C39.642 32.2046 39.7985 31.8076 40.0797 31.506C40.361 31.2045 40.7462 31.0209 41.1576 30.9922H46.3741C46.7855 31.0209 47.1706 31.2045 47.4519 31.506C47.7332 31.8076 47.8896 32.2046 47.8896 32.617C47.8896 33.0293 47.7332 33.4263 47.4519 33.7279C47.1706 34.0294 46.7855 34.2131 46.3741 34.2417ZM33.8716 39.0805H44.0056C44.417 39.0518 44.8022 38.8682 45.0835 38.5666C45.3647 38.2651 45.5212 37.8681 45.5212 37.4557C45.5212 37.0434 45.3647 36.6463 45.0835 36.3448C44.8022 36.0432 44.417 35.8596 44.0056 35.831H33.8716C33.4602 35.8596 33.075 36.0432 32.7938 36.3448C32.5125 36.6463 32.3561 37.0434 32.3561 37.4557C32.3561 37.8681 32.5125 38.2651 32.7938 38.5666C33.075 38.8682 33.4602 39.0518 33.8716 39.0805ZM12.8012 41.433H28.2461C28.469 41.4175 28.6927 41.448 28.9033 41.5226C29.1139 41.5972 29.3068 41.7144 29.4702 41.8668C29.6336 42.0191 29.7639 42.2035 29.8529 42.4084C29.942 42.6133 29.988 42.8343 29.988 43.0577C29.988 43.2811 29.942 43.5022 29.8529 43.7071C29.7639 43.9119 29.6336 44.0963 29.4702 44.2487C29.3068 44.4011 29.1139 44.5183 28.9033 44.5929C28.6927 44.6675 28.469 44.698 28.2461 44.6825H12.8012C12.3899 44.6538 12.0047 44.4702 11.7234 44.1687C11.4421 43.8671 11.2857 43.4701 11.2857 43.0577C11.2857 42.6454 11.4421 42.2484 11.7234 41.9468C12.0047 41.6453 12.3899 41.4616 12.8012 41.433ZM18.1043 46.39H12.2584C11.8285 46.39 11.4163 46.5607 11.1123 46.8647C10.8083 47.1687 10.6376 47.5809 10.6376 48.0108C10.6376 48.4407 10.8083 48.8529 11.1123 49.1569C11.4163 49.4608 11.8285 49.6316 12.2584 49.6316H18.1043C18.5342 49.6316 18.9464 49.4608 19.2504 49.1569C19.5544 48.8529 19.7251 48.4407 19.7251 48.0108C19.7251 47.5809 19.5544 47.1687 19.2504 46.8647C18.9464 46.5607 18.5342 46.39 18.1043 46.39ZM22.6124 46.39H26.4914C26.9212 46.39 27.3335 46.5607 27.6374 46.8647C27.9414 47.1687 28.1122 47.5809 28.1122 48.0108C28.1122 48.4407 27.9414 48.8529 27.6374 49.1569C27.3335 49.4608 26.9212 49.6316 26.4914 49.6316H22.6124C22.1826 49.6316 21.7703 49.4608 21.4663 49.1569C21.1624 48.8529 20.9916 48.4407 20.9916 48.0108C20.9916 47.5809 21.1624 47.1687 21.4663 46.8647C21.7703 46.5607 22.1826 46.39 22.6124 46.39Z" fill="url(#paint0_linear)"/>
<defs>
<linearGradient id="paint0_linear" x1="0" y1="0" x2="72.5874" y2="21.0024" gradientUnits="userSpaceOnUse">
<stop stop-color="#009FE3"/>
<stop offset="0.512001" stop-color="#E6007E"/>
<stop offset="1" stop-color="#FFED00"/>
</linearGradient>
</defs>
</svg>
