<svg width="127" height="61" viewBox="0 0 127 61" fill="none" xmlns="http://www.w3.org/2000/svg">
<path d="M64.022 29.5106H50.9199V44.8527H79.0756L67.9252 29.3037C66.6291 29.4451 65.3259 29.5142 64.022 29.5106Z" fill="#E6007E"/>
<path d="M79.0756 12.5948C79.0756 4.57983 73.8668 0 64.0125 0H50.9199V25.1176H64.0125C73.8668 25.1173 79.0756 20.466 79.0756 12.5948Z" fill="#E6007E"/>
<path d="M39.5377 0H0L19.6954 44.8529L39.5377 0Z" fill="#009FE3"/>
<path d="M95.25 27.5098H119.811L107.53 0L95.25 27.5098Z" fill="#FFED00"/>
<path d="M93.4141 31.6963L87.4624 44.8532H127L121.048 31.6963H93.4141Z" fill="#FFED00"/>
<path d="M3.59434 53.8237V59.7633H3.13426V58.9302C2.99141 59.207 2.78872 59.4337 2.54707 59.5871C2.30542 59.7405 2.03355 59.815 1.75945 59.8029C1.28814 59.7866 0.840751 59.5538 0.512251 59.154C0.183752 58.7542 0 58.2188 0 57.6615C0 57.1042 0.183752 56.5688 0.512251 56.169C0.840751 55.7692 1.28814 55.5364 1.75945 55.5201C2.02676 55.5097 2.29184 55.5809 2.5291 55.7268C2.76636 55.8728 2.9678 56.0885 3.11397 56.3533V53.8237H3.59434ZM3.1204 57.6579C3.13223 57.4456 3.10669 57.2327 3.0454 57.0326C2.98411 56.8325 2.8884 56.6496 2.76431 56.4954C2.64022 56.3412 2.49043 56.2191 2.32441 56.1368C2.15839 56.0545 1.97974 56.0137 1.79972 56.0171C1.44243 56.0363 1.10515 56.2176 0.858048 56.5232C0.610949 56.8288 0.473056 57.2353 0.473056 57.6581C0.473056 58.0808 0.610949 58.4873 0.858048 58.7929C1.10515 59.0986 1.44243 59.2799 1.79972 59.2991C1.97975 59.3024 2.15841 59.2616 2.32443 59.1793C2.49045 59.0969 2.64023 58.9748 2.76432 58.8206C2.88841 58.6664 2.98412 58.4834 3.0454 58.2833C3.10669 58.0832 3.13222 57.8703 3.1204 57.6579Z" fill="#1D1D1B"/>
<path d="M10.7719 57.8773H7.68858C7.69904 58.0777 7.74493 58.2739 7.82361 58.4544C7.90229 58.635 8.0122 58.7964 8.14703 58.9293C8.28185 59.0623 8.43892 59.1642 8.60919 59.2291C8.77946 59.2941 8.95956 59.3208 9.13913 59.3078C9.35108 59.3152 9.5619 59.2707 9.7568 59.1775C9.9517 59.0844 10.126 58.9447 10.2674 58.7684L10.5478 59.1279C10.3697 59.3499 10.1498 59.5252 9.90394 59.6414C9.65805 59.7577 9.3922 59.8119 9.12535 59.8003C8.87215 59.8173 8.61856 59.7752 8.38074 59.6768C8.14292 59.5784 7.92609 59.4258 7.7441 59.2287C7.5621 59.0315 7.41893 58.7943 7.32371 58.532C7.22849 58.2697 7.18332 57.9882 7.19107 57.7053C7.17791 57.434 7.21494 57.1625 7.29987 56.9078C7.38479 56.6531 7.51579 56.4207 7.6847 56.2249C7.85362 56.0291 8.05685 55.8742 8.28174 55.7698C8.50662 55.6654 8.74836 55.6137 8.99191 55.6181C9.23511 55.6127 9.47664 55.6638 9.7012 55.7681C9.92577 55.8723 10.1285 56.0275 10.2965 56.2237C10.4645 56.4199 10.5941 56.6529 10.6772 56.908C10.7603 57.163 10.795 57.4345 10.7791 57.7053C10.7787 57.7527 10.7719 57.8153 10.7719 57.8773ZM7.68858 57.463H10.3023C10.2812 57.0924 10.1343 56.7446 9.89151 56.4905C9.64875 56.2364 9.32834 56.0949 8.99544 56.0949C8.66254 56.0949 8.34213 56.2364 8.09938 56.4905C7.85662 56.7446 7.70973 57.0924 7.68858 57.463Z" fill="#1D1D1B"/>
<path d="M13.7783 59.2943L14.0454 58.8564C14.5003 59.1607 15.0461 59.3222 15.6048 59.3179C16.4387 59.3179 16.7807 59.0519 16.7807 58.6452C16.7807 57.5737 13.9371 58.4183 13.9371 56.7913C13.9371 56.1186 14.5542 55.618 15.6717 55.618C16.2163 55.6101 16.7528 55.7427 17.2226 56.0013L16.964 56.4471C16.5816 56.2088 16.1306 56.086 15.6717 56.0953C14.8792 56.0953 14.529 56.3847 14.529 56.7758C14.529 57.8865 17.3727 57.0495 17.3727 58.6295C17.3727 59.3413 16.705 59.8028 15.5631 59.8028C14.925 59.8202 14.2983 59.6416 13.7783 59.2943Z" fill="#1D1D1B"/>
<path d="M20.3685 54.1866C20.3704 54.0886 20.4029 53.9955 20.459 53.9276C20.5151 53.8597 20.5902 53.8224 20.6679 53.8239C20.7061 53.8224 20.7442 53.8304 20.7799 53.8474C20.8156 53.8645 20.8483 53.8903 20.8761 53.9233C20.9039 53.9563 20.9263 53.9959 20.9419 54.0399C20.9575 54.0838 20.9661 54.1312 20.9672 54.1793C20.968 54.2794 20.9372 54.3758 20.8815 54.4473C20.8259 54.5187 20.75 54.5594 20.6706 54.5604C20.5911 54.5614 20.5147 54.5225 20.4579 54.4524C20.4012 54.3823 20.3689 54.2867 20.3682 54.1866H20.3685ZM20.4607 55.3907H20.8694V59.2061H20.4607V55.3907Z" fill="#1D1D1B"/>
<path d="M28.1382 55.6495V59.0465C28.1746 59.3097 28.1546 59.5787 28.0798 59.8318C28.005 60.0849 27.8774 60.3148 27.7076 60.5031C27.5377 60.6914 27.3302 60.8328 27.1019 60.9157C26.8735 60.9986 26.6308 61.0208 26.3933 60.9804C25.8045 61.0066 25.227 60.795 24.7682 60.385L25.0071 59.9879C25.3922 60.3422 25.8799 60.5303 26.3802 60.5176C27.2624 60.5176 27.6669 60.0691 27.6669 59.1134V58.6197C27.516 58.862 27.3122 59.0579 27.0744 59.189C26.8366 59.3202 26.5726 59.3823 26.3072 59.3696C26.0806 59.3775 25.8549 59.3349 25.6434 59.2442C25.4319 59.1535 25.239 59.0167 25.0762 58.8418C24.9134 58.6669 24.7839 58.4575 24.6955 58.2261C24.6071 57.9946 24.5615 57.7459 24.5615 57.4946C24.5615 57.2432 24.6071 56.9945 24.6955 56.7631C24.7839 56.5316 24.9134 56.3222 25.0762 56.1474C25.239 55.9725 25.4319 55.8356 25.6434 55.7449C25.8549 55.6542 26.0806 55.6116 26.3072 55.6195C26.5777 55.6059 26.8468 55.6698 27.0884 55.805C27.3301 55.9403 27.5363 56.1423 27.687 56.3916V55.6491L28.1382 55.6495ZM27.6805 57.4875C27.6892 57.1955 27.6191 56.9072 27.4791 56.6597C27.3391 56.4121 27.1357 56.2165 26.8948 56.0979C26.6539 55.9792 26.3866 55.943 26.127 55.9938C25.8674 56.0446 25.6274 56.1801 25.4377 56.383C25.2481 56.5859 25.1173 56.8469 25.0623 57.1327C25.0073 57.4184 25.0305 57.7158 25.1289 57.9869C25.2273 58.2579 25.3965 58.4902 25.6147 58.654C25.833 58.8179 26.0904 58.9058 26.354 58.9065C26.5271 58.9188 26.7007 58.8909 26.8636 58.8246C27.0264 58.7584 27.175 58.6551 27.2999 58.5216C27.4247 58.388 27.5231 58.2271 27.5886 58.049C27.6541 57.871 27.6854 57.6797 27.6805 57.4875Z" fill="#1D1D1B"/>
<path d="M35.9326 57.1436V59.2059H35.4068V57.1908C35.4311 57.0424 35.4182 56.8909 35.3691 56.7477C35.3201 56.6044 35.2361 56.4732 35.1235 56.3639C35.0109 56.2545 34.8727 56.1699 34.7192 56.1164C34.5657 56.0629 34.4009 56.0418 34.2372 56.0548C34.0509 56.0424 33.864 56.0676 33.6895 56.1283C33.5151 56.1891 33.3573 56.2841 33.2275 56.4066C33.0976 56.5292 32.9987 56.6762 32.9378 56.8374C32.8768 56.9986 32.8554 57.17 32.8749 57.3396V59.2058H32.3491V55.6493H32.8528V56.3049C33.0105 56.0809 33.231 55.8995 33.4913 55.7795C33.7516 55.6594 34.0423 55.605 34.3333 55.622C34.5537 55.6059 34.7752 55.6347 34.9818 55.7063C35.1885 55.778 35.3751 55.8907 35.5282 56.0363C35.6813 56.182 35.7969 56.3569 35.8669 56.5484C35.9368 56.7399 35.9593 56.9432 35.9326 57.1436Z" fill="#1D1D1B"/>
<path d="M47.601 59.8037L46.835 59.0521C46.5973 59.2883 46.3098 59.474 45.9914 59.5971C45.673 59.7201 45.3308 59.7778 44.9874 59.7662C43.9055 59.7662 43.1318 59.2245 43.1318 58.428C43.1318 57.8042 43.5111 57.3455 44.5215 56.7893C44.3187 56.6407 44.1517 56.4524 44.0317 56.2371C43.9118 56.0218 43.8417 55.7846 43.8262 55.5414C43.8262 54.8724 44.371 54.4214 45.2238 54.4214C46.0057 54.4214 46.511 54.8122 46.511 55.4662C46.511 55.9925 46.1792 56.3609 45.2792 56.8568L46.7952 58.3453C46.9766 58.0288 47.102 57.6861 47.1663 57.3308L47.6242 57.466C47.5394 57.8943 47.3736 58.3044 47.1348 58.6763L47.9243 59.4507L47.601 59.8037ZM46.5034 58.7291L44.8372 57.0974C43.9529 57.5788 43.6846 57.9093 43.6846 58.3756C43.6846 58.9467 44.2214 59.3226 45.0189 59.3226C45.2967 59.3318 45.5733 59.2834 45.8295 59.1809C46.0858 59.0784 46.3156 58.9241 46.5032 58.7288L46.5034 58.7291ZM44.3478 55.5341C44.3478 55.8424 44.4662 56.0603 44.9715 56.5486C45.769 56.1127 46.0296 55.8497 46.0296 55.474C46.0296 55.0831 45.7375 54.82 45.2242 54.82C44.6714 54.8198 44.3478 55.113 44.3478 55.5339V55.5341Z" fill="#1D1D1B"/>
<path d="M61.6889 57.1434V59.2059H61.1509V57.1906C61.1509 56.4401 60.7268 56.0545 60.0072 56.0545C59.8204 56.0463 59.6339 56.0748 59.4608 56.1378C59.2876 56.2009 59.1321 56.297 59.005 56.4195C58.8779 56.542 58.7824 56.6878 58.7252 56.8467C58.668 57.0056 58.6505 57.1738 58.6739 57.3394V59.2058H58.1361V57.1906C58.1361 56.4401 57.7116 56.0545 56.9846 56.0545C56.7979 56.0469 56.6117 56.0757 56.4389 56.139C56.266 56.2022 56.1107 56.2984 55.9838 56.4207C55.8568 56.543 55.7613 56.6886 55.7039 56.8473C55.6464 57.006 55.6285 57.1739 55.6512 57.3394V59.2058H55.1133V55.6489H55.6283V56.2981C55.7813 56.0784 55.9979 55.8996 56.2552 55.7805C56.5125 55.6615 56.8011 55.6066 57.0904 55.6217C57.3844 55.6013 57.6783 55.6625 57.9318 55.7969C58.1854 55.9313 58.3862 56.1323 58.5069 56.3725C58.6686 56.1316 58.9006 55.9344 59.1782 55.8022C59.4557 55.6699 59.7684 55.6075 60.0826 55.6217C60.3066 55.6062 60.5316 55.6357 60.7412 55.708C60.9507 55.7803 61.1395 55.8936 61.2935 56.0396C61.4476 56.1855 61.5631 56.3604 61.6315 56.5514C61.6999 56.7425 61.7195 56.9447 61.6889 57.1434Z" fill="#1D1D1B"/>
<path d="M68.8837 57.2211V59.7591H68.3307V59.121C68.171 59.3496 67.9503 59.533 67.6914 59.6521C67.4325 59.7713 67.145 59.8218 66.8588 59.7984C65.8909 59.7984 65.2974 59.3158 65.2974 58.6073C65.2974 57.9767 65.7202 57.4474 66.9483 57.4474H68.3062V57.1981C68.3062 56.4975 67.8916 56.1159 67.0945 56.1159C66.5752 56.1093 66.0706 56.2805 65.6714 56.5985L65.411 56.1859C65.9067 55.8142 66.5219 55.6188 67.1514 55.6331C67.3803 55.6009 67.6139 55.6192 67.8342 55.6866C68.0546 55.7539 68.256 55.8686 68.4231 56.0217C68.5902 56.1749 68.7186 56.3626 68.7984 56.5704C68.8782 56.7783 68.9074 57.0008 68.8837 57.2211ZM68.3062 58.5292V57.8596H66.9644C66.1348 57.8596 65.8669 58.1712 65.8669 58.5913C65.8669 59.0663 66.2651 59.3622 66.9485 59.3622C67.2378 59.3789 67.5252 59.3072 67.7692 59.1575C68.0132 59.0078 68.2013 58.7878 68.3062 58.5292Z" fill="#1D1D1B"/>
<path d="M76.0692 57.1436V59.2059H75.5442V57.1908C75.5684 57.0424 75.5555 56.8908 75.5063 56.7476C75.4572 56.6044 75.3732 56.4731 75.2606 56.3638C75.148 56.2545 75.0097 56.1699 74.8561 56.1164C74.7025 56.0628 74.5377 56.0418 74.3739 56.0548C74.1877 56.0425 74.0008 56.0676 73.8263 56.1284C73.6518 56.1892 73.4941 56.2842 73.3642 56.4067C73.2343 56.5292 73.1354 56.6763 73.0745 56.8374C73.0136 56.9986 72.9921 57.1701 73.0116 57.3396V59.2058H72.4858V55.6493H72.9893V56.305C73.1471 56.0809 73.3676 55.8995 73.628 55.7795C73.8883 55.6594 74.1791 55.605 74.4702 55.6221C74.6906 55.6059 74.9121 55.6346 75.1188 55.7063C75.3254 55.7779 75.5121 55.8907 75.6651 56.0363C75.8182 56.182 75.9338 56.3569 76.0037 56.5484C76.0736 56.7399 76.096 56.9432 76.0692 57.1436Z" fill="#1D1D1B"/>
<path d="M83.2686 55.6177V59.7572H82.7596V59.0017C82.6139 59.2559 82.4055 59.464 82.1565 59.6039C81.9076 59.7439 81.6273 59.8104 81.3453 59.7965C81.1191 59.8195 80.8909 59.789 80.6774 59.7072C80.4639 59.6255 80.2705 59.4945 80.1112 59.324C79.952 59.1535 79.831 58.9478 79.7572 58.7218C79.6833 58.4958 79.6584 58.2553 79.6842 58.0178V55.6177H80.2155V57.9629C80.1902 58.1362 80.2027 58.3133 80.252 58.4808C80.3012 58.6483 80.3859 58.8018 80.4998 58.9299C80.6137 59.0579 80.7537 59.1571 80.9093 59.22C81.0649 59.2829 81.232 59.3078 81.3981 59.2929C81.5845 59.3034 81.7708 59.2709 81.9439 59.1977C82.1171 59.1246 82.2729 59.0124 82.4006 58.8692C82.5282 58.726 82.6245 58.5552 82.6827 58.3687C82.741 58.1823 82.7597 57.9846 82.7377 57.7897V55.6177H83.2686Z" fill="#1D1D1B"/>
<path d="M87.9544 54.9734V55.4199H89.0391V55.8516H87.9679V59.2061H87.4925V55.8516H86.8633V55.4199H87.4925V54.952C87.4808 54.7995 87.5005 54.6461 87.5501 54.5027C87.5998 54.3593 87.6782 54.2294 87.7798 54.1222C87.8813 54.015 88.0036 53.9332 88.1379 53.8825C88.2722 53.8319 88.4152 53.8136 88.5568 53.8291C88.8093 53.8203 89.0571 53.904 89.2595 54.0666L89.0987 54.448C88.9504 54.3217 88.7656 54.2555 88.5764 54.2609C88.1688 54.2611 87.9544 54.5056 87.9544 54.9734Z" fill="#1D1D1B"/>
<path d="M95.2421 57.2211V59.7591H94.6895V59.121C94.5298 59.3496 94.3089 59.533 94.05 59.6522C93.791 59.7713 93.5035 59.8218 93.2172 59.7983C92.2499 59.7983 91.6558 59.3158 91.6558 58.6073C91.6558 57.9767 92.0786 57.4474 93.307 57.4474H94.6649V57.1981C94.6649 56.4975 94.2501 56.116 93.453 56.116C92.9337 56.1094 92.4291 56.2805 92.0299 56.5985L91.7695 56.1859C92.2652 55.8142 92.8804 55.6188 93.5099 55.6331C93.7388 55.6009 93.9723 55.6192 94.1927 55.6865C94.4131 55.7539 94.6145 55.8685 94.7816 56.0217C94.9487 56.1749 95.077 56.3626 95.1568 56.5704C95.2366 56.7783 95.2658 57.0008 95.2421 57.2211ZM94.6655 58.5292V57.8596H93.3236C92.4939 57.8596 92.2261 58.1712 92.2261 58.5913C92.2261 59.0663 92.6246 59.3622 93.3077 59.3622C93.5969 59.3787 93.8842 59.3069 94.1281 59.1572C94.372 59.0075 94.56 58.7876 94.6651 58.5292H94.6655Z" fill="#1D1D1B"/>
<path d="M98.2462 57.7069C98.2375 57.4278 98.2846 57.1499 98.3845 56.8907C98.4844 56.6314 98.635 56.3964 98.8268 56.2005C99.0185 56.0045 99.2473 55.8518 99.4988 55.7521C99.7502 55.6523 100.019 55.6076 100.288 55.6207C100.593 55.6023 100.897 55.6677 101.169 55.8106C101.442 55.9534 101.673 56.1684 101.839 56.4339L101.44 56.7151C101.313 56.5214 101.141 56.364 100.939 56.2575C100.738 56.1511 100.514 56.0989 100.288 56.1058C99.8859 56.1178 99.5044 56.2919 99.2242 56.5909C98.9441 56.89 98.7874 57.2905 98.7874 57.7075C98.7874 58.1244 98.9441 58.525 99.2242 58.824C99.5044 59.1231 99.8859 59.2971 100.288 59.3092C100.513 59.3176 100.737 59.2668 100.938 59.1616C101.14 59.0564 101.313 58.9002 101.44 58.7074L101.839 58.9889C101.672 59.2531 101.44 59.467 101.168 59.6096C100.896 59.7521 100.592 59.8182 100.288 59.8014C100.018 59.8137 99.7494 59.7681 99.4978 59.6675C99.2462 59.5669 99.0174 59.4135 98.8257 59.2168C98.634 59.0201 98.4835 58.7845 98.3838 58.5246C98.2841 58.2648 98.2372 57.9864 98.2462 57.7069Z" fill="#1D1D1B"/>
<path d="M107.231 59.4887C107.021 59.6979 106.759 59.807 106.49 59.7966C106.352 59.8158 106.212 59.7962 106.081 59.7392C105.95 59.6821 105.83 59.5891 105.732 59.467C105.633 59.3449 105.558 59.1967 105.511 59.0334C105.464 58.8702 105.448 58.696 105.462 58.5236V55.8775H104.835V55.3784H105.462V54.4214H105.936V55.3784H107.004V55.8775H105.936V58.4904C105.924 58.5952 105.931 58.7021 105.957 58.8031C105.982 58.904 106.026 58.9964 106.084 59.0733C106.143 59.1502 106.215 59.2095 106.294 59.2469C106.373 59.2843 106.459 59.2988 106.543 59.2892C106.733 59.2951 106.918 59.2153 107.064 59.0645L107.231 59.4887Z" fill="#1D1D1B"/>
<path d="M114.42 55.6177V59.7572H113.911V59.0017C113.765 59.2559 113.557 59.464 113.308 59.604C113.059 59.7439 112.779 59.8104 112.497 59.7965C112.271 59.8195 112.042 59.789 111.829 59.7072C111.615 59.6255 111.422 59.4945 111.263 59.324C111.103 59.1535 110.982 58.9478 110.909 58.7218C110.835 58.4958 110.81 58.2553 110.836 58.0178V55.6177H111.367V57.9629C111.342 58.1362 111.354 58.3132 111.403 58.4807C111.453 58.6481 111.537 58.8017 111.651 58.9297C111.765 59.0578 111.905 59.157 112.06 59.2199C112.216 59.2828 112.383 59.3077 112.549 59.2929C112.736 59.3034 112.922 59.2709 113.095 59.1977C113.268 59.1246 113.424 59.0124 113.552 58.8692C113.679 58.726 113.776 58.5552 113.834 58.3687C113.892 58.1823 113.911 57.9846 113.889 57.7897V55.6177H114.42Z" fill="#1D1D1B"/>
<path d="M119.811 55.6248V56.091C119.77 56.091 119.73 56.0844 119.696 56.0844C119.526 56.0759 119.356 56.1049 119.199 56.1694C119.041 56.234 118.9 56.3324 118.786 56.4577C118.671 56.5829 118.585 56.7319 118.535 56.894C118.485 57.0561 118.472 57.2272 118.496 57.3951V59.2059H118.014V55.652H118.475V56.3475C118.599 56.1068 118.793 55.909 119.031 55.78C119.269 55.6511 119.541 55.597 119.811 55.6248Z" fill="#1D1D1B"/>
<path d="M126.987 57.8793H123.39C123.402 58.0799 123.455 58.2762 123.547 58.4569C123.639 58.6377 123.767 58.7992 123.925 58.9323C124.082 59.0654 124.265 59.1673 124.464 59.2323C124.663 59.2973 124.873 59.3241 125.082 59.311C125.329 59.3184 125.575 59.2739 125.803 59.1806C126.03 59.0874 126.233 58.9476 126.398 58.7712L126.725 59.131C126.417 59.4404 126.019 59.6558 125.583 59.7503C125.147 59.8447 124.692 59.8141 124.274 59.6621C123.856 59.5101 123.494 59.2436 123.234 58.8958C122.973 58.5481 122.826 58.1346 122.81 57.707C122.794 57.4355 122.838 57.1638 122.937 56.9089C123.036 56.654 123.188 56.4213 123.386 56.2254C123.583 56.0295 123.82 55.8744 124.082 55.7699C124.344 55.6654 124.626 55.6137 124.911 55.618C125.194 55.6127 125.476 55.6639 125.738 55.7682C126 55.8726 126.237 56.0279 126.433 56.2243C126.629 56.4206 126.78 56.6538 126.877 56.9091C126.974 57.1643 127.014 57.436 126.996 57.707C126.995 57.7546 126.987 57.8173 126.987 57.8793ZM123.39 57.4647H126.439C126.414 57.0937 126.243 56.7455 125.96 56.4911C125.677 56.2366 125.303 56.095 124.914 56.095C124.526 56.095 124.152 56.2366 123.869 56.4911C123.586 56.7455 123.414 57.0937 123.39 57.4647Z" fill="#1D1D1B"/>
</svg>
