<svg width="30" height="20" viewBox="0 0 30 20" fill="none" xmlns="http://www.w3.org/2000/svg">
<path fill-rule="evenodd" clip-rule="evenodd" d="M1.66667 3.33327C0.75 3.33327 0 2.58327 0 1.66661C0 0.74994 0.75 -6.10352e-05 1.66667 -6.10352e-05H28.3333C29.25 -6.10352e-05 30 0.74994 30 1.66661C30 2.58327 29.25 3.33327 28.3333 3.33327H1.66667ZM1.66667 11.6667H28.3333C29.25 11.6667 30 10.9167 30 10C30 9.08337 29.25 8.33337 28.3333 8.33337H1.66667C0.75 8.33337 0 9.08337 0 10C0 10.9167 0.75 11.6667 1.66667 11.6667ZM1.66667 19.9999H28.3333C29.25 19.9999 30 19.2499 30 18.3332C30 17.4165 29.25 16.6665 28.3333 16.6665H1.66667C0.75 16.6665 0 17.4165 0 18.3332C0 19.2499 0.75 19.9999 1.66667 19.9999Z" fill="black" fill-opacity="0.6"/>
</svg>
