<svg width="49" height="49" viewBox="0 0 49 49" fill="none" xmlns="http://www.w3.org/2000/svg">
<path fill-rule="evenodd" clip-rule="evenodd" d="M24.0988 0C10.7902 0 0 10.7902 0 24.0988C0 37.4073 10.7902 48.1975 24.0988 48.1975C37.4073 48.1975 48.1975 37.4073 48.1975 24.0988C48.1975 10.7902 37.4073 0 24.0988 0ZM24.0978 4.01649C35.1712 4.01649 44.1801 13.0254 44.1801 24.0988C44.1801 35.1722 35.1712 44.1811 24.0978 44.1811C13.0244 44.1811 4.01548 35.1722 4.01548 24.0988C4.01548 13.0254 13.0244 4.01649 24.0978 4.01649ZM16.0649 20.0823H20.0813V16.6844C20.0813 13.6399 21.6839 12.0494 25.2947 12.0494H30.1225V17.07H27.2266C26.2988 17.07 26.106 17.4495 26.106 18.4094V20.0823H30.1225L29.761 24.0988H26.106V36.1481H20.0813V24.0988H16.0649V20.0823Z" fill="#333333"/>
</svg>
