<svg width="1088" height="173" viewBox="0 0 1088 173" fill="none" xmlns="http://www.w3.org/2000/svg">
<path d="M73.2931 67.045L104.847 31.128V10.1765H6.98981V36.1165H66.503L37.745 68.6413V89.9919H52.5234C70.8966 89.9919 78.6853 96.5767 78.6853 107.152C78.6853 118.526 68.6998 125.111 52.5234 125.111C37.9447 125.111 23.1662 120.521 12.5817 112.54L0 137.283C13.5802 146.86 33.7508 152.248 53.3223 152.248C93.0643 152.248 111.238 130.698 111.238 107.152C111.238 86.5998 98.4565 71.0358 73.2931 67.045Z" fill="#333333"/>
<path d="M134.616 149.854H198.123C243.857 149.854 275.211 122.317 275.211 80.015C275.211 37.7128 243.857 10.1765 198.123 10.1765H134.616V149.854ZM166.969 123.315V36.7151H196.526C224.285 36.7151 242.459 53.2768 242.459 80.015C242.459 106.753 224.285 123.315 196.526 123.315H166.969Z" fill="#333333"/>
<path d="M430.645 124.313V42.5017H336.981L335.583 79.6159C334.385 102.962 331.789 123.913 317.01 124.313H312.617V173H341.574V149.854H417.064V173H446.022V124.313H430.645ZM363.742 81.8108L364.341 68.0427H399.49V124.313H354.156C361.745 116.331 363.143 99.9689 363.742 81.8108Z" fill="#333333"/>
<path d="M465.281 149.854H494.039L546.163 86.0012V149.854H577.118V42.5017H548.56L496.236 106.354V42.5017H465.281V149.854Z" fill="#333333"/>
<path d="M675.443 93.9827C685.828 89.3933 692.618 80.8132 692.618 70.6367C692.618 51.6805 670.85 40.5063 641.892 40.5063C627.713 40.5063 612.934 43.8985 598.356 50.2837L605.945 71.8339C617.927 67.045 629.111 64.451 639.895 64.451C653.675 64.451 661.064 68.4417 661.064 75.2261C661.064 81.8108 655.073 85.4025 644.089 85.4025H624.917V104.758H646.885C658.068 104.758 664.06 108.349 664.06 115.333C664.06 123.315 654.873 127.904 640.494 127.904C627.313 127.904 614.133 125.111 602.949 119.723L594.561 141.473C608.541 148.457 625.316 151.849 641.892 151.849C672.448 151.849 695.614 138.879 695.614 117.927C695.614 106.354 688.225 97.9735 675.443 93.9827Z" fill="#333333"/>
<path d="M759.278 40.9054C742.103 40.9054 724.729 45.4948 712.946 53.8754L724.13 75.6251C731.918 69.4394 743.701 65.6482 755.084 65.6482C771.86 65.6482 779.848 73.4302 779.848 86.7993H755.084C722.332 86.7993 708.952 99.9689 708.952 118.925C708.952 137.482 723.93 151.45 749.093 151.45C764.87 151.45 776.054 146.262 781.845 136.484V149.854H811.003V88.5952C811.003 56.0704 792.031 40.9054 759.278 40.9054ZM756.882 130.498C745.898 130.498 739.307 125.31 739.307 117.528C739.307 110.345 743.901 104.957 758.479 104.957H779.848V115.932C776.254 125.709 767.267 130.498 756.882 130.498Z" fill="#333333"/>
<path d="M891.641 30.9285C915.007 30.9285 926.99 20.752 927.189 0H906.42C906.42 9.17878 901.028 14.7659 891.442 14.7659C881.656 14.7659 876.863 9.17878 876.663 0H856.293C856.493 20.752 868.275 30.9285 891.641 30.9285ZM837.72 149.854H866.478L918.602 86.0012V149.854H949.557V42.5017H920.998L868.675 106.354V42.5017H837.72V149.854Z" fill="#333333"/>
<path d="M979.159 149.854H1010.11V109.746H1056.85V149.854H1088V42.5017H1056.85V84.4048H1010.11V42.5017H979.159V149.854Z" fill="#333333"/>
</svg>
