<svg width="101" height="80" viewBox="0 0 101 80" fill="none" xmlns="http://www.w3.org/2000/svg">
<path d="M22.8368 0C9.88811 0 0 8.94118 0 22.5882C0 32.4706 4.94407 39.5294 12.4779 42.8235L2.35432 80H25.662L39.317 46.1176C44.4965 33.1765 45.4382 28.7059 45.4382 22.5882C45.4382 9.17648 36.021 0 22.8368 0ZM78.3986 0C65.4499 0 55.5618 8.94118 55.5618 22.5882C55.5618 32.4706 60.5058 39.5294 68.0396 42.8235L57.9161 80H81.2238L94.8788 46.1176C100.058 33.1765 101 28.7059 101 22.5882C101 9.17648 91.5827 0 78.3986 0Z" fill="white"/>
</svg>
