<svg width="101" height="80" viewBox="0 0 101 80" fill="none" xmlns="http://www.w3.org/2000/svg">
<path d="M32.9604 37.4118L43.3193 0H20.0117L6.35664 33.8823C0.941724 46.8235 0 51.2941 0 57.4118C0 70.8235 9.65268 80 22.8368 80C35.7855 80 45.4382 71.0588 45.4382 57.4118C45.4382 47.7647 40.7296 40.7059 32.9604 37.4118ZM88.5221 37.4118L98.8811 0H75.5734L61.9184 33.8823C56.5035 46.8235 55.5618 51.2941 55.5618 57.4118C55.5618 70.8235 65.2145 80 78.3986 80C91.3473 80 101 71.0588 101 57.4118C101 47.7647 96.2914 40.7059 88.5221 37.4118Z" fill="white"/>
</svg>
